<?xml version="1.0" encoding="UTF-8"?>
<svg width="877px" height="1342px" viewBox="0 0 877 1342" version="1.1" xmlns="http://www.w3.org/2000/svg" xmlns:xlink="http://www.w3.org/1999/xlink">
    <!-- Generator: Sketch 51.3 (57544) - http://www.bohemiancoding.com/sketch -->
    <title>Group 2</title>
    <desc>Created with Sketch.</desc>
    <defs></defs>
    <g id="Onboarding" stroke="none" stroke-width="1" fill="none" fill-rule="evenodd">
        <g id="Group-6" transform="translate(-19191.000000, -1337.000000)">
            <g id="Group-2" transform="translate(19191.000000, 1337.000000)">
                <path d="M695.83,24 L876.48,119.4 L670,184.17 C670,184.17 678.04,70.1 695.83,24" id="Fill-236" fill="#4A90E2"></path>
                <path d="M473.765065,198.626767 C473.765065,198.626767 491.125065,220.436767 491.125065,263.596767 C491.125065,306.756767 467.985065,339.246767 428.385065,333.456767 C388.775065,327.676767 386.555065,303.196767 326.925065,312.096767 C267.305065,320.996767 232.595065,319.216767 217.015065,288.956767 C201.445065,258.696767 219.245065,234.676767 234.815065,229.776767 C250.395065,224.886767 252.615065,202.186767 277.095065,191.066767 C301.565065,179.936767 323.915065,191.956767 347.395065,195.516767 C370.875065,199.076767 387.235065,175.486767 418.495065,171.486767 C449.745065,167.476767 471.995065,189.286767 473.765065,198.626767" id="Fill-237" fill="#26407A"></path>
                <path d="M525.33,644.94 C526.23,641.79 554.93,331 554.93,331 L340,331 L372.49,644.94 L525.33,644.94" id="Fill-238" fill="#D4E3FB"></path>
                <polygon id="Fill-239" fill="#D4E3FB" points="305 668.25 452.29 668.25 452.29 642 305 642"></polygon>
                <polyline id="Fill-240" fill="#D4E3FB" points="304.56 668.11 208 1338.69 244.05 1338.69 327.7 665 304.56 668.11"></polyline>
                <polyline id="Fill-241" fill="#D4E3FB" points="291.01 893 452.09 893 452.09 913.69 283 913.69 291.01 893"></polyline>
                <polyline id="Fill-242" fill="#D4E3FB" points="251.94 1230 451.81 1230 451.81 1250.69 242 1250.69 251.94 1230"></polyline>
                <polyline id="Fill-243" fill="#D4E3FB" points="301.5 786 452.41 786 452.41 806.69 294 806.69 301.5 786"></polyline>
                <polyline id="Fill-244" fill="#D4E3FB" points="324 644.72 324 533 334.23 533 334.23 649.13 324 644.72"></polyline>
                <path d="M314.77,529 L344.18,529 C348.47,529 351.95,532.47 351.95,536.76 C351.95,541.05 348.47,544.52 344.18,544.52 L314.77,544.52 C310.48,544.52 307,541.05 307,536.76 C307,532.47 310.48,529 314.77,529" id="Fill-245" fill="#D4E3FB"></path>
                <polygon id="Fill-246" fill="#D4E3FB" points="452 668.25 599.29 668.25 599.29 642 452 642"></polygon>
                <polyline id="Fill-247" fill="#D4E3FB" points="599.14 668.11 695.7 1338.69 659.66 1338.69 576 665 599.14 668.11"></polyline>
                <polyline id="Fill-248" fill="#D4E3FB" points="613.08 893 452 893 452 913.69 621.09 913.69 613.08 893"></polyline>
                <polyline id="Fill-249" fill="#D4E3FB" points="651.87 1230 452 1230 452 1250.69 661.81 1250.69 651.87 1230"></polyline>
                <polyline id="Fill-250" fill="#D4E3FB" points="602.91 786 452 786 452 806.69 610.41 806.69 602.91 786"></polyline>
                <polyline id="Fill-251" fill="#D4E3FB" points="580.23 644.72 580.23 533 570 533 570 649.13 580.23 644.72"></polyline>
                <path d="M589.18,529 L559.76,529 C555.47,529 552,532.47 552,536.76 C552,541.05 555.47,544.52 559.76,544.52 L589.18,544.52 C593.46,544.52 596.94,541.05 596.94,536.76 C596.94,532.47 593.46,529 589.18,529" id="Fill-252" fill="#D4E3FB"></path>
                <polyline id="Fill-253" fill="#D4E3FB" points="628.44 1228.82 610.82 1246.44 283 918.62 300.62 901 628.44 1228.82"></polyline>
                <polyline id="Fill-254" fill="#D4E3FB" points="276 1228.82 293.62 1246.44 621.44 918.62 603.82 901 276 1228.82"></polyline>
                <polyline id="Fill-255" fill="#D4E3FB" points="358.46 660 346 793.71 351.56 793.71 362.69 662.22 358.46 660"></polyline>
                <polyline id="Fill-256" fill="#D4E3FB" points="548.23 660 560.69 793.71 555.13 793.71 544 662.22 548.23 660"></polyline>
                <path d="M375.891672,368 C375.891672,368 361.861672,372 350.631672,398.26 C339.401672,424.51 312.701672,512.17 317.591672,525.08 C322.491672,537.98 345.971672,544.65 355.371672,518.85 C364.761672,493.04 382.831672,438.42 382.831672,438.42 C382.831672,438.42 390.571672,372.45 375.891672,368" id="Fill-257" fill="#FFCAA6"></path>
                <path d="M501.871445,351.003864 C501.871445,351.003864 521.761445,349.543864 548.541445,403.383864 C575.331445,457.223864 592.451445,504.883864 592.201445,517.423864 C591.941445,529.963864 582.221445,539.673864 564.611445,524.543864 C547.011445,509.413864 508.991445,438.333864 508.991445,438.333864 C508.991445,438.333864 497.861445,363.013864 501.871445,351.003864" id="Fill-258" fill="#FFCAA6"></path>
                <path d="M395.588097,362.22 C395.588097,362.22 408.568097,356.48 414.798097,352.92 C421.028097,349.36 421.178097,317.67 421.178097,317.67 L456.048097,309 C456.048097,309 457.268097,340.64 459.718097,342.86 C462.168097,345.09 481.908097,347.53 481.908097,347.53 C481.908097,347.53 502.158097,396.04 444.088097,410.72 C386.018097,425.41 395.588097,362.22 395.588097,362.22" id="Fill-259" fill="#FFCAA6"></path>
                <path d="M147.31,1133.45891 C130.53,1132.59891 114.39,1138.22891 101.81,1149.33891 C89.23,1160.45891 81.69,1175.73891 80.54,1192.43891 L0,1187.60891 C5.03,1108.92891 73.08,1048.80891 152.11,1053.22891 L147.31,1133.45891" id="Fill-260" fill="#EFE6E8"></path>
                <path d="M0,1187.72528 L81.69,1192.62528 C83.77,1157.96528 113.66,1131.55528 148.46,1133.64528 L153.34,1052.26528 C73.42,1047.47528 4.76,1108.12528 0,1187.72528 Z M1.23,1186.64528 C3.79,1148.90528 20.81,1114.34528 49.25,1089.21528 C77.69,1064.09528 114.18,1051.38528 152.11,1053.35528 L147.37,1132.42528 C112.87,1130.97528 83.29,1157.10528 80.62,1191.39528 L1.23,1186.64528 Z" id="Fill-261" fill="#EFE6E8"></path>
                <path d="M207.24,1200.91 L288.94,1205.8 C293.71,1126.2 232.79,1057.79 152.88,1053 L148,1134.38 C182.8,1136.46 209.32,1166.25 207.24,1200.91" id="Fill-262" fill="#4A90E2"></path>
                <path d="M136.322094,1340.81 L141.202094,1259.43 C106.402094,1257.35 79.8820944,1227.56 81.9520944,1192.9 L0.262094406,1188 C-4.50790559,1267.61 56.4020944,1336.02 136.322094,1340.81" id="Fill-263" fill="#4A90E2"></path>
                <path d="M289.11,1205.83 C284.08,1284.51 216.02,1344.63 137,1340.2 L141.8,1259.98 C158.58,1260.84 174.71,1255.21 187.29,1244.09 C199.88,1232.98 207.42,1217.69 208.57,1201 L289.11,1205.83" id="Fill-264" fill="#EFE6E8"></path>
                <path d="M136,1341.36 C215.92,1346.15 284.57,1285.5 289.34,1205.89 L207.64,1201 C205.57,1235.66 175.68,1262.07 140.88,1259.98 L136,1341.36 Z M137.23,1340.27 L141.97,1261.2 C158.69,1261.91 174.75,1256.23 187.3,1245.14 C199.85,1234.05 207.43,1218.85 208.72,1202.22 L288.11,1206.98 C285.55,1244.72 268.52,1279.28 240.09,1304.4 C211.64,1329.53 175.16,1342.24 137.23,1340.27 Z" id="Fill-265" fill="#EFE6E8"></path>
                <path d="M477.784851,254.097965 C476.974851,292.877965 456.324851,329.947965 431.814851,329.437965 C407.304851,328.927965 388.214851,291.027965 389.024851,252.247965 C389.834851,213.467965 410.234851,188.487965 434.734851,189.007965 C459.254851,189.517965 478.594851,215.327965 477.784851,254.097965" id="Fill-266" fill="#FFCAA6"></path>
                <path d="M769.19202,1330.76244 L703.94202,1331.46244 L683.51202,1331.68244 C678.64202,1331.74244 674.65202,1328.75244 674.61202,1325.01244 C674.57202,1321.27244 678.49202,1318.19244 683.37202,1318.14244 L769.05202,1317.21244 C773.92202,1317.16244 777.91202,1320.15244 777.95202,1323.89244 C777.99202,1327.63244 774.07202,1330.71244 769.19202,1330.76244 Z M682.42202,1230.28244 L768.10202,1229.35244 C772.97202,1229.30244 776.96202,1232.29244 777.00202,1236.03244 C777.04202,1239.77244 773.12202,1242.85244 768.25202,1242.90244 L703.00202,1243.60244 L682.56202,1243.82244 C677.69202,1243.88244 673.71202,1240.89244 673.67202,1237.15244 C673.62202,1233.41244 677.54202,1230.33244 682.42202,1230.28244 Z M866.13202,1310.26244 L597.14202,1313.17244 C597.00202,1313.50244 596.83202,1313.83244 596.60202,1314.17244 C593.10202,1319.35244 587.80202,1317.15244 587.80202,1317.15244 C587.80202,1317.15244 566.92202,1302.23244 568.65202,1281.36244 C570.39202,1260.50244 586.20202,1248.56244 590.62202,1249.00244 C591.24202,1249.06244 591.76202,1249.27244 592.20202,1249.58244 L863.47202,1246.65244 C855.80202,1233.56244 841.54202,1224.83244 825.28202,1225.00244 L635.67202,1227.05244 C604.84202,1227.38244 564.67202,1252.81244 565.00202,1283.64244 L565.00202,1283.65244 C565.33202,1314.48244 606.04202,1339.03244 636.87202,1338.70244 L826.49202,1336.65244 C844.30202,1336.46244 859.50202,1325.63244 866.13202,1310.26244 Z" id="Fill-267" fill="#4A90E2"></path>
                <path d="M593.803587,1252.77 C593.873587,1255.41 592.813587,1258.74 590.643587,1261.54 C586.403587,1266.98 577.463587,1279.47 582.493587,1291.06 C586.183587,1299.56 594.423587,1303.92 596.763587,1308.32 L867.473587,1305.4 L866.063587,1309.31 C868.383587,1303.9 869.643587,1297.94 869.573587,1291.68 L869.313587,1267.4 C869.233587,1259.59 867.093587,1252.3 863.443587,1246 L865.373587,1249.84 L593.803587,1252.77" id="Fill-268" fill="#4C73CC"></path>
                <path d="M866.01,1310.13 L866.06,1310 C866.04,1310.05 866.02,1310.09 866,1310.13 L866.01,1310.13" id="Fill-269" fill="#CC524C"></path>
                <path d="M597,1308.92 C597.7,1310.22 597.87,1311.53 597.25,1312.95 L866.24,1310.04 C866.26,1310 866.28,1309.96 866.3,1309.91 L867.71,1306 L597,1308.92" id="Fill-270" fill="#D6E9FF"></path>
                <path d="M864.01,1246 L864,1246 C864.03,1246.06 864.07,1246.11 864.1,1246.17 L864.01,1246" id="Fill-271" fill="#CC524C"></path>
                <path d="M593.73,1252.94 L865.3,1250.01 L863.37,1246.17 C863.34,1246.11 863.3,1246.06 863.27,1246 L592,1248.93 C593.1,1249.7 593.67,1251.16 593.73,1252.94" id="Fill-272" fill="#D6E9FF"></path>
                <path d="M395.650428,362.69 C395.650428,362.69 399.210428,406.74 441.040428,404.07 C482.870428,401.4 481.970428,348 481.970428,348 L502.000428,351.12 C502.000428,351.12 505.560428,381.82 510.450428,396.51 C515.350428,411.19 520.690428,427.66 518.020428,443.67 C515.350428,459.69 506.000428,467.26 501.550428,478.83 C497.100428,490.4 491.320428,530 491.320428,537.12 C491.320428,544.24 514.650428,560.7 518.210428,590.07 C521.770428,619.44 507.530428,641.69 457.250428,641.69 C406.970428,641.69 380.520428,641.69 380.520428,641.69 C380.520428,641.69 354.710428,639.02 356.050428,598.97 C357.380428,558.92 380.080428,557.59 393.870428,536.67 C407.660428,515.76 394.310428,479.72 387.640428,472.6 C380.960428,465.48 369.840428,450.79 372.510428,432.11 C375.180428,413.42 376.520428,368.03 376.520428,368.03 L395.650428,362.69" id="Fill-273" fill="#4A90E2"></path>
                <path d="M420.28,326.19 C420.28,326.19 426.47,330.1 437.19,328.25 C447.91,326.4 455.75,316 455.75,316 L456.31,324.86 C456.31,324.86 453.52,331.62 439.54,338.3 C425.55,344.97 418,345.31 418,345.31 L420.28,326.19" id="Fill-274" fill="#F2B186"></path>
                <path d="M521.638395,545 C521.638395,545 490.768395,546.93 461.408395,561.28 C432.038395,575.63 419.018395,603.66 434.708395,629.36 C450.388395,655.06 487.438395,641.04 487.438395,641.04 L521.638395,545" id="Fill-275" fill="#F2B186"></path>
                <path d="M435.190407,800.825017 C435.190407,800.825017 476.130407,613.385017 493.040407,570.875017 C509.950407,528.375017 564.230407,538.295017 549.110407,600.155017 C533.980407,662.025017 456.100407,801.805017 456.100407,803.695017 C456.100407,805.585017 442.760407,858.945017 428.960407,863.205017 C415.170407,867.455017 403.600407,850.855017 435.190407,800.825017" id="Fill-276" fill="#FFCAA6"></path>
                <path d="M456.154005,546 C456.154005,546 425.774005,546.57 396.404005,560.92 C367.034005,575.27 354.024005,603.3 369.704005,629 C385.394005,654.7 422.434005,640.68 422.434005,640.68 L456.154005,546" id="Fill-277" fill="#F2B186"></path>
                <path d="M423.491711,574.511412 C436.481711,531.121412 491.431711,535.901412 481.971711,598.191412 C472.511711,660.481412 407.641711,805.231412 407.811711,807.091412 C407.981711,808.951412 399.521711,862.711412 386.171711,868.151412 C372.821711,873.601412 359.801711,858.321412 386.721711,806.181412 C386.721711,806.181412 410.501711,617.901412 423.491711,574.511412 Z" id="Fill-278" fill="#FFCAA6"></path>
                <path d="M374,449.42 C374,449.42 386.61,469.03 448.68,459.36 C510.76,449.68 518.81,438 518.81,438 C518.81,438 519.6,445.42 514.34,456.85 C509.09,468.28 501.79,472.35 498.43,490.11 C479.8,487.81 442.45,497.96 424.43,511.31 C406.41,524.66 390.73,540.59 390.73,540.59 C390.73,540.59 403.29,526.66 398.4,502.74 C393.5,478.82 387.05,472.7 382.6,467.36 C378.15,462.02 374.97,453.24 374,449.42" id="Fill-279" fill="#4C73CC"></path>
                <path d="M390.635686,276.225939 C390.635686,276.225939 390.735686,250.385939 402.415686,236.035939 C414.095686,221.685939 433.115686,235.035939 448.805686,236.035939 C464.485686,237.035939 464.485686,216.675939 464.485686,216.675939 C464.485686,216.675939 480.035686,260.405939 467.755686,296.775939 C488.855686,268.405939 490.125686,194.985939 439.765686,184.975939 C389.395686,174.955939 371.175686,244.665939 390.635686,276.225939" id="Fill-280" fill="#26407A"></path>
                <path d="M566.239054,535.373039 C566.309054,534.173039 566.239054,525.693039 573.409054,523.193039 C580.589054,520.693039 594.269054,521.523039 596.939054,531.533039 C599.609054,541.553039 596.719054,557.563039 592.489054,560.403039 C588.259054,563.243039 587.759054,561.573039 585.759054,563.243039 C583.759054,564.913039 574.749054,572.083039 571.579054,570.253039 C568.409054,568.413039 565.069054,554.233039 566.239054,535.373039" id="Fill-281" fill="#FFCAA6"></path>
                <path d="M355.731466,535.373039 C355.661466,534.173039 355.731466,525.693039 348.561466,523.193039 C341.381466,520.693039 327.701466,521.523039 325.031466,531.533039 C322.361466,541.553039 325.241466,557.563039 329.481466,560.403039 C333.711466,563.243039 334.211466,561.573039 336.211466,563.243039 C338.211466,564.913039 347.221466,572.083039 350.391466,570.253039 C353.561466,568.413039 356.901466,554.233039 355.731466,535.373039" id="Fill-282" fill="#FFCAA6"></path>
                <path d="M635.998484,979.200472 C633.868484,979.200472 632.088484,977.530472 631.998484,975.380472 C618.308484,667.340472 635.318484,419.450472 652.008484,265.740472 C670.098484,99.110472 691.728484,4.05047202 691.948484,3.11047202 C692.438484,0.960472023 694.598484,-0.389527977 696.748484,0.100472023 C698.898484,0.600472023 700.248484,2.75047202 699.748484,4.90047202 C699.538484,5.84047202 677.988484,100.570472 659.948484,266.780472 C643.308484,420.190472 626.338484,667.580472 639.998484,975.020472 C640.098484,977.230472 638.388484,979.100472 636.178484,979.200472 C636.118484,979.200472 636.058484,979.200472 635.998484,979.200472" id="Fill-283" fill="#D4E3FB"></path>
            </g>
        </g>
    </g>
</svg>