<?xml version="1.0" encoding="UTF-8"?>
<svg width="470px" height="1156px" viewBox="0 0 470 1156" version="1.1" xmlns="http://www.w3.org/2000/svg" xmlns:xlink="http://www.w3.org/1999/xlink">
    <!-- Generator: Sketch 51.3 (57544) - http://www.bohemiancoding.com/sketch -->
    <title>Group 5</title>
    <desc>Created with Sketch.</desc>
    <defs></defs>
    <g id="Onboarding" stroke="none" stroke-width="1" fill="none" fill-rule="evenodd">
        <g id="Group-6" transform="translate(-15296.000000, -1430.000000)">
            <g id="Tile-4" transform="translate(13822.000000, 803.000000)">
                <g id="Group-5" transform="translate(1474.000000, 627.000000)">
                    <path d="M398.955457,632.324522 C398.035457,632.324522 397.155457,631.814522 396.715457,630.944522 C347.635457,532.794522 289.705457,356.054522 289.125457,354.274522 C288.695457,352.964522 289.405457,351.554522 290.725457,351.124522 C292.035457,350.694522 293.445457,351.414522 293.875457,352.724522 C294.455457,354.494522 352.275457,530.884522 401.185457,628.704522 C401.805457,629.944522 401.305457,631.444522 400.065457,632.054522 C399.705457,632.234522 399.325457,632.324522 398.955457,632.324522" id="Fill-152" fill="#51495B"></path>
                    <path d="M237.54915,2.71962822 C237.54915,2.71962822 262.99915,-6.04037178 286.25915,19.5796282 C309.51915,45.1996282 302.10915,77.3196282 308.84915,94.9796282 C315.58915,112.629628 343.77915,129.709628 321.65915,179.059628 C299.53915,228.409628 222.53915,244.109628 182.75915,230.289628 C142.97915,216.469628 110.60915,169.359628 67.4591503,172.349628 C24.3091503,175.339628 -0.980849666,161.179628 0.0291503336,123.079628 C1.03915033,84.9896282 57.6791503,65.4296282 96.1191503,74.8696282 C134.54915,84.3096282 151.06915,76.8896282 154.77915,52.9596282 C158.48915,29.0196282 186.13915,-10.7603718 237.54915,2.71962822" id="Fill-153" fill="#26407A"></path>
                    <path d="M209.866493,216.95 C209.866493,216.95 220.826493,214.42 225.546493,212.32 C230.266493,210.21 234.686493,204 234.686493,204 L292.436493,215.6 C292.436493,215.6 294.656493,221 300.726493,229.76 C306.796493,238.53 320.106493,250.33 320.106493,250.33 C320.106493,250.33 297.856493,306.72 236.416493,297.36 C174.976493,288 209.866493,216.95 209.866493,216.95" id="Fill-154" fill="#FFCAA6"></path>
                    <path d="M354.184171,288.07 C354.184171,288.07 350.284171,276.1 337.384171,267 C295.924171,289 285.044171,331.48 286.064171,332.74 C287.074171,334 295.924171,355.75 295.924171,355.75 L309.064171,357.24 L344.594171,397.08 L354.184171,288.07" id="Fill-155" fill="#FFCAA6"></path>
                    <path d="M189.976801,222 C189.976801,222 169.416801,227.06 144.466801,251 C119.516801,274.93 28.4968008,374.73 22.0868008,391.25 C15.6768008,407.76 38.9468008,415.52 57.1468008,405.07 C75.3568008,394.62 179.866801,300.56 179.866801,300.56 L189.976801,222" id="Fill-156" fill="#FFCAA6"></path>
                    <path d="M291.414056,84.9819963 C293.924056,131.391996 272.574056,177.531996 243.234056,179.121996 C213.904056,180.701996 187.704056,137.141996 185.194056,90.7319963 C182.684056,44.3219963 204.824056,12.6419963 234.154056,11.0619963 C263.484056,9.47199627 288.904056,38.5819963 291.414056,84.9819963" id="Fill-157" fill="#FFCAA6"></path>
                    <path d="M427.425153,422.670435 C431.345153,430.530435 435.345153,439.520435 432.365153,447.780435 C428.385153,458.750435 413.445153,462.140435 402.655153,457.690435 C391.865153,453.240435 384.355153,443.460435 377.375153,434.100435 C365.385153,418.030435 344.995153,400.080435 333.005153,384.000435 C323.615153,371.420435 313.895153,358.020435 312.245153,342.410435 C310.895153,329.630435 315.255153,316.750435 322.015153,305.810435 C326.135153,299.140435 331.125153,293.080435 336.385153,287.280435 C341.675153,281.440435 344.485153,275.010435 349.875153,282.150435 C359.735153,295.220435 365.845153,314.170435 373.175153,328.880435 C388.465153,359.520435 412.135153,392.030435 427.425153,422.670435" id="Fill-158" fill="#FFCAA6"></path>
                    <path d="M234.764856,172 C252.344856,166.89 268.404856,156.71 280.534856,143 C279.024856,167.47 282.994856,192.25 292.064856,215.03 C293.244856,217.99 294.534856,221.18 293.754856,224.28 C292.444856,229.54 286.114856,231.6 280.724856,232.15 C271.654856,233.09 262.424856,232.23 253.654856,229.75 C247.534856,228.03 232.564856,223.89 230.304856,217 C228.384856,211.14 236.094856,203.32 237.794856,197.91 C240.474856,189.37 239.694856,179.6 234.764856,172" id="Fill-159" fill="#FFCAA6"></path>
                    <path d="M347.841509,452.250423 C356.371509,446.120423 374.701509,435.450423 384.211509,431.010423 C393.721509,426.560423 403.211509,430.380423 413.081509,433.960423 C420.491509,436.640423 427.171509,443.820423 425.831509,451.580423 C424.661509,458.370423 418.141509,462.720423 412.111509,466.040423 C382.421509,482.380423 341.571509,491.780423 308.161509,497.450423 C301.021509,498.660423 269.951509,506.430423 267.281509,497.820423 C263.791509,486.550423 293.781509,481.820423 300.271509,479.110423 C317.111509,472.070423 333.021509,462.890423 347.841509,452.250423" id="Fill-160" fill="#FFCAA6"></path>
                    <path d="M93.3355125,610.779639 C94.8755125,662.019639 123.575513,749.749639 135.025513,799.869639 C159.465513,906.809639 176.945513,960.659639 197.405513,1051.92964 C205.495513,1051.78964 213.585513,1051.64964 221.665513,1051.50964 C214.785513,994.819639 217.425513,962.049639 210.545513,905.369639 C203.665513,848.629639 191.425513,796.749639 193.465513,739.729639 C194.745513,704.229639 199.475513,668.589639 194.935513,633.279639 C191.835513,609.089639 184.385513,585.629639 174.525513,563.219639 C167.315513,546.829639 156.155513,512.439639 138.135513,504.759639 C88.8555125,483.769639 92.6755125,588.699639 93.3355125,610.779639" id="Fill-161" fill="#FFCAA6"></path>
                    <path d="M331.832737,715.444795 C366.952737,836.734795 402.112737,958.164795 427.712737,1081.5448 C420.532737,1080.7148 413.352737,1079.8848 406.172737,1079.0548 C346.382737,947.524795 286.602737,815.994795 226.812737,684.454795 C213.272737,654.664795 189.822737,613.604795 192.162737,581.274795 C194.712737,545.904795 261.022737,485.114795 282.932737,542.844795 C303.742737,597.684795 315.572737,659.304795 331.832737,715.444795" id="Fill-162" fill="#FFCAA6"></path>
                    <path d="M210.936226,1033.42382 C218.436226,1045.91382 218.806226,1037.84382 221.606226,1052.14382 C222.846226,1058.45382 228.346226,1087.52382 224.336226,1092.55382 C219.966226,1098.05382 212.026226,1098.74382 205.006226,1099.00382 C182.186226,1099.83382 159.366226,1100.67382 136.536226,1101.50382 C133.836226,1101.60382 130.726226,1101.52382 129.006226,1099.43382 C127.286226,1097.32382 127.926226,1093.99382 129.756226,1091.97382 C131.586226,1089.95382 134.266226,1088.96382 136.886226,1088.19382 C149.036226,1084.62382 162.056226,1084.28382 173.876226,1079.71382 C185.686226,1075.14382 196.656226,1064.23382 195.276226,1051.64382 C194.386226,1043.46382 188.646226,1034.55382 193.386226,1027.83382 C195.686226,1024.57382 200.266226,1023.14382 204.016226,1024.52382 C207.766226,1025.90382 210.336226,1029.95382 209.976226,1033.93382 C210.126226,1034.52382 210.306226,1035.11382 210.506226,1035.68382 C210.606226,1035.46382 211.196226,1033.69382 210.936226,1033.42382" id="Fill-163" fill="#FFCAA6"></path>
                    <path d="M424.262952,1122.97966 C436.512952,1135.38966 447.672952,1154.21966 465.052952,1155.57966 C470.662952,1156.01966 470.552952,1145.61966 469.142952,1140.16966 C467.732952,1134.72966 464.302952,1130.06966 460.952952,1125.54966 C449.012952,1109.48966 437.082952,1093.41966 425.142952,1077.34966 C422.732952,1074.09966 420.132952,1070.70966 416.402952,1069.14966 C401.702952,1062.97966 404.802952,1083.31966 406.452952,1090.41966 C409.292952,1102.61966 415.452952,1114.05966 424.262952,1122.97966" id="Fill-164" fill="#FFCAA6"></path>
                    <path d="M390.075541,727.443996 L315.405541,757.223996 C311.155541,758.923996 306.655541,757.653996 305.355541,754.393996 C304.055541,751.133996 306.445541,747.113996 310.695541,745.423996 L385.375541,715.643996 C389.625541,713.943996 394.115541,715.213996 395.415541,718.473996 C396.715541,721.733996 394.325541,725.753996 390.075541,727.443996 Z M280.155541,668.843996 L354.835541,639.063996 C359.085541,637.373996 363.585541,638.643996 364.885541,641.903996 C366.185541,645.163996 363.795541,649.173996 359.545541,650.873996 L302.675541,673.543996 L284.865541,680.653996 C280.615541,682.343996 276.115541,681.073996 274.815541,677.813996 C273.515541,674.553996 275.905541,670.543996 280.155541,668.843996 Z M467.995541,676.733996 L233.555541,770.223996 C233.535541,770.563996 233.495541,770.913996 233.415541,771.283996 C232.105541,777.003996 226.715541,776.863996 226.715541,776.863996 C226.715541,776.863996 203.395541,770.873996 197.855541,752.023996 C192.325541,733.173996 202.125541,717.373996 206.145541,716.263996 C206.705541,716.113996 207.225541,716.123996 207.725541,716.243996 L444.155541,621.953996 C433.015541,613.093996 417.575541,610.273996 403.415541,615.923996 L238.155541,681.823996 C211.275541,692.543996 184.715541,728.383996 195.435541,755.253996 C206.145541,782.123996 250.085541,789.853996 276.955541,779.133996 L442.215541,713.233996 C457.745541,707.043996 467.385541,692.423996 467.995541,676.733996 Z" id="Fill-165" fill="#3498DB"></path>
                    <path d="M210.196343,719.11 C211.156343,721.39 211.356343,724.67 210.396343,727.85 C208.536343,734.04 204.926343,747.99 213.256343,756.44 C219.356343,762.63 228.046343,763.66 231.576343,766.72 L467.526343,672.63 L467.606343,676.53 C467.806343,671.01 466.896343,665.37 464.716343,659.91 L456.286343,638.75 C453.566343,631.95 449.236343,626.28 443.906343,622 L446.896343,624.71 L210.196343,719.11" id="Fill-166" fill="#0A78C1"></path>
                    <path d="M468.01,677.13 L468,677 C468,677.05 468,677.09 468,677.14 L468.01,677.13" id="Fill-167" fill="#CC524C"></path>
                    <path d="M232,767.09 C233.05,768 233.64,769.08 233.59,770.53 L468.03,677.04 C468.03,676.99 468.03,676.95 468.03,676.9 L467.95,673 L232,767.09" id="Fill-168" fill="#D6E9FF"></path>
                    <path d="M444.01,622 L444,622 C444.04,622.04 444.09,622.08 444.14,622.11 L444.01,622" id="Fill-169" fill="#CC524C"></path>
                    <path d="M210.86,719.22 L447.56,624.82 L444.57,622.11 C444.52,622.08 444.47,622.04 444.43,622 L208,716.29 C209.22,716.59 210.22,717.67 210.86,719.22" id="Fill-170" fill="#D6E9FF"></path>
                    <path d="M189.98,221.724332 C189.98,221.724332 184.25,259.154332 179.53,271.284332 C174.81,283.424332 160.65,284.094332 154.25,309.044332 C147.84,333.994332 162.34,339.054332 162.68,362.654332 C163.01,386.254332 157.28,418.274332 148.52,437.834332 C139.75,457.384332 105,487.284332 99,531.424332 C120.2,531.554332 175.32,613.484332 179.36,618.534332 C183.41,623.594332 198.58,622.074332 198.58,622.074332 C198.58,622.074332 210.72,581.624332 226.39,562.404332 C242.07,543.184332 282.02,542.174332 282.02,542.174332 C282.02,542.174332 277.68,520.974332 266.7,501.734332 C255.73,482.504332 247.13,466.824332 251.17,447.604332 C255.22,428.394332 275.95,401.084332 287.58,386.414332 C299.22,371.754332 308.82,357.314332 308.82,357.314332 C308.82,357.314332 292.64,331.294332 305.79,306.514332 C318.94,281.734332 337.14,267.074332 337.14,267.074332 L319.44,250.384332 C319.44,250.384332 283.76,287.994332 245.27,289.994332 C206.79,292.004332 200.1,264.204332 209.2,217.004332 C201.62,216.834332 189.98,221.724332 189.98,221.724332" id="Fill-171" fill="#4598F1"></path>
                    <path d="M153.46,313 C153.46,313 159.64,336.33 212.74,346.95 C265.84,357.57 301.25,336.08 301.25,336.08 C301.25,336.08 303.26,346.9 308.82,357.8 C300.17,370.21 290.16,383.62 290.16,383.62 C290.16,383.62 239.54,371.48 200.86,391.46 C162.17,411.43 129.51,497.8 117.9,542.99 C111.13,537.38 104.6,531.77 99,531.91 C100.98,513.58 106.04,497.14 118.34,480.97 C130.65,464.79 147.61,439.97 151.8,428 C156,416.02 163.18,387.34 161.66,367.56 C160.15,347.78 146.53,335.31 153.46,313" id="Fill-172" fill="#4C71CC"></path>
                    <path d="M304.05191,498.34125 C304.05191,498.34125 277.47191,505.91125 269.55191,507.08125 C261.63191,508.26125 247.22191,501.97125 243.17191,502.71125 C239.13191,503.45125 224.97191,507.72125 222.69191,507.23125 C220.42191,506.74125 219.95191,498.65125 218.16191,496.62125 C216.37191,494.60125 229.77191,483.73125 241.15191,482.21125 C252.53191,480.70125 278.32191,487.78125 278.32191,487.78125 L304.05191,498.34125" id="Fill-173" fill="#FFCAA6"></path>
                    <path d="M24,403.676114 C24,403.676114 47.54,424.686114 81.59,441.886114 C115.64,459.076114 133.17,467.166114 133.17,467.166114 L144.63,457.386114 C144.63,457.386114 95.75,413.896114 72.15,389.966114 C48.55,366.026114 24,403.676114 24,403.676114" id="Fill-174" fill="#FFCAA6"></path>
                    <path d="M144.11528,439.697227 C144.74528,440.007227 149.67528,441.787227 153.63528,448.497227 C157.60528,455.207227 159.79528,460.097227 158.44528,460.597227 C157.09528,461.107227 156.07528,458.407227 153.63528,461.447227 C151.19528,464.477227 148.83528,467.517227 146.64528,469.027227 C144.45528,470.547227 142.77528,472.567227 140.40528,474.257227 C138.04528,475.937227 137.37528,478.137227 133.16528,476.277227 C128.94528,474.427227 123.38528,471.727227 124.05528,465.827227 C124.73528,459.927227 122.87528,459.087227 126.41528,456.387227 C129.95528,453.687227 132.48528,452.177227 134.34528,449.137227 C136.19528,446.107227 137.20528,436.327227 144.11528,439.697227" id="Fill-175" fill="#FFCAA6"></path>
                    <polyline id="Fill-176" fill="#F2B186" points="377.36 433.29 403.39 429 374 429 377.36 433.29"></polyline>
                    <path d="M74.92,392.301267 C74.92,392.301267 68.65,383.851267 51,382.311267 C61.16,381.011267 72.91,383.921267 79.61,388.471267 C77.34,390.331267 74.92,392.301267 74.92,392.301267" id="Fill-177" fill="#F2B186"></path>
                    <path d="M237.55,178.78 C237.55,178.78 251.15,179.64 262.28,170.16 C273.4,160.68 279.79,146 279.79,146 L279.95,163.46 C279.95,163.46 274.07,175.78 261.41,187.76 C248.75,199.74 237,198.5 237,198.5 C237,198.5 240.01,192.2 237.55,178.78" id="Fill-178" fill="#F2B186"></path>
                    <path d="M225.970044,42.553214 C225.970044,42.553214 222.590044,52.663214 207.760044,68.513214 C192.930044,84.353214 177.080044,92.113214 177.080044,92.113214 C177.080044,92.113214 172.360044,12.883214 235.410044,8.16321404 C298.450044,3.44321404 304.180044,102.563214 299.800044,115.373214 C295.420044,128.183214 286.670044,137.283214 286.670044,137.283214 C286.670044,137.283214 286.650044,114.023214 265.750044,83.683214 C244.850044,53.343214 225.970044,42.553214 225.970044,42.553214" id="Fill-179" fill="#26407A"></path>
                    <path d="M283.188399,673.596823 C282.148399,673.596823 281.168399,672.946823 280.818399,671.896823 C280.168399,669.966823 215.188399,477.636823 202.258399,376.746823 C189.318399,275.746823 197.608399,218.696823 197.688399,218.126823 C197.898399,216.766823 199.168399,215.826823 200.528399,216.026823 C201.898399,216.236823 202.838399,217.506823 202.628399,218.876823 C202.548399,219.436823 194.378399,275.886823 207.218399,376.106823 C220.078399,476.516823 284.898399,668.366823 285.558399,670.296823 C285.998399,671.606823 285.298399,673.016823 283.988399,673.466823 C283.728399,673.556823 283.448399,673.596823 283.188399,673.596823" id="Fill-180" fill="#51495B"></path>
                </g>
            </g>
        </g>
    </g>
</svg>