<?xml version="1.0" encoding="UTF-8"?>
<svg width="1148px" height="1044px" viewBox="0 0 1148 1044" version="1.1" xmlns="http://www.w3.org/2000/svg" xmlns:xlink="http://www.w3.org/1999/xlink">
    <!-- Generator: Sketch 51.3 (57544) - http://www.bohemiancoding.com/sketch -->
    <title>Group</title>
    <desc>Created with Sketch.</desc>
    <defs></defs>
    <g id="Onboarding" stroke="none" stroke-width="1" fill="none" fill-rule="evenodd">
        <g id="Group-6" transform="translate(-1468.000000, -2368.000000)">
            <g id="Tile-1" transform="translate(365.000000, 1661.000000)">
                <g id="Group" transform="translate(1103.000000, 707.000000)">
                    <path d="M576.348053,4.73394257 C576.348053,4.73394257 601.020053,2.61394257 618.411053,30.1839426 C635.800053,57.7539426 639.771053,113.033943 622.652053,142.873943 C605.533053,172.723943 559.453053,170.573943 535.702053,153.603943 C511.950053,136.643943 510.151053,119.673943 505.748053,103.983943 C501.346053,88.2939426 482.684053,80.6539426 489.470053,45.4539426 C496.256053,10.2439426 534.286053,-9.68605743 576.348053,4.73394257" id="Fill-181" fill="#26407A"></path>
                    <path d="M341.174,773.431299 C321.54,781.191299 287.641,780.591299 266.542,779.861299 C211.285,777.941299 156.028,776.031299 100.772,774.111299 C100.182,765.711299 99.591,757.311299 99,748.911299 C152.335,738.141299 205.67,727.371299 259.005,716.601299 C274.114,713.551299 290.066,710.081299 301.302,699.521299 C315.245,686.421299 320.135,663.981299 337.44,655.831299 C348.949,650.401299 363,653.311299 373.782,660.071299 C382.251,665.371299 400.416,679.501299 399.834,689.811299 C399.289,699.481299 395.825,711.791299 390.799,719.991299 C378.017,740.841299 364.481,764.221299 341.174,773.431299" id="Fill-182" fill="#FFCAA6"></path>
                    <path d="M73.1542944,756.114986 C67.2702944,762.604986 67.6702944,772.444986 68.4202944,781.184986 C70.5402944,805.884986 72.6612944,830.584986 74.7822944,855.274986 C75.0622944,858.534986 75.5342944,862.164986 78.0892944,864.204986 C80.8992944,866.444986 85.2692944,865.664986 87.9802944,863.304986 C90.6912944,860.944986 92.0642944,857.414986 93.0022944,853.944986 C96.2372944,841.984986 95.4352944,829.344986 96.6362944,817.004986 C97.8362944,804.664986 101.668294,791.604986 111.528294,784.094986 C116.922294,779.984986 124.392294,777.014986 125.843294,770.394986 C130.441294,749.404986 83.6112944,744.564986 73.1542944,756.114986" id="Fill-183" fill="#FFCAA6"></path>
                    <path d="M442.939,665.46 L395.859,726.54 C395.859,726.54 347.718,702.57 307,675.85 C337.115,625.8 380.801,552 380.801,552 C380.801,552 442.514,633.65 442.939,665.46" id="Fill-184" fill="#499BCD"></path>
                    <path d="M724.218,996.972884 C722.081,1006.63288 709.919,1011.14288 700.352,1008.61288 C690.785,1006.09288 683.369,998.742884 676.439,991.682884 C659.275,974.182884 642.111,956.692884 624.947,939.202884 C601.472,915.272884 577.717,890.982884 561.285,861.772884 C551.109,843.682884 543.94,824.032884 533.841,805.892884 C508.412,760.242884 464.884,724.912884 448,675.452884 C462.788,667.772884 477.575,660.102884 492.363,652.422884 C501.12,647.872884 522.253,631.432884 532.305,634.342884 C542.782,637.382884 550.853,663.812884 555.59,672.912884 C563.37,687.862884 571.15,702.812884 578.929,717.762884 C610.243,777.942884 641.557,838.122884 672.871,898.292884 C681.428,914.742884 689.986,931.182884 698.545,947.632884 C702.823,955.852884 707.102,964.082884 711.381,972.302884 C713.679,976.722884 725.198,992.442884 724.218,996.972884" id="Fill-185" fill="#FFCAA6"></path>
                    <path d="M706.879029,1027.04 C712.364029,1034.13 718.669029,1041.73 727.499029,1043.27 C736.612029,1044.86 745.395029,1039.44 752.625029,1033.66 C775.405029,1015.47 793.245029,991.17 803.795029,964 C795.485029,968.6 787.185029,973.19 778.875029,977.79 C770.315029,982.53 761.560029,987.34 751.942029,989.14 C732.376029,992.82 710.995029,982.12 702.216029,964.25 C705.285029,970.35 689.491029,990.56 689.026029,997.97 C688.362029,1008.56 700.566029,1018.88 706.879029,1027.04" id="Fill-186" fill="#FFCAA6"></path>
                    <path d="M371,548 C371,548 372.02,566.83 392.823,609.59 C413.626,652.34 461.343,719.78 461.343,719.78 C461.343,719.78 517.33,712.78 567.591,668.88 C538.961,612.89 509.696,571.08 509.696,571.08 L371,548" id="Fill-187" fill="#52B4EF"></path>
                    <path d="M455.375005,189.181526 C470.378005,186.421526 485.820005,188.951526 500.745005,192.111526 C526.125005,197.481526 551.121005,204.671526 575.476005,213.611526 C588.339005,218.331526 601.216005,223.641526 611.974005,232.131526 C622.733005,240.611526 631.270005,252.731526 632.713005,266.361526 C634.120005,279.631526 628.809005,292.611526 623.373005,304.801526 C602.040005,352.631526 577.038005,398.821526 548.659005,442.841526 C543.865005,450.271526 538.417005,458.101526 530.101005,461.121526 C520.777005,464.501526 510.516005,460.931526 501.253005,457.381526 C468.974005,445.011526 436.694005,432.641526 404.415005,420.271526 C398.017005,417.821526 391.072005,414.891526 387.958005,408.791526 C385.866005,404.691526 385.915005,399.861526 386.060005,395.261526 C387.107005,362.131526 390.682005,329.091526 396.722005,296.501526 C401.472005,270.871526 404.830005,235.011526 419.445005,212.811526 C427.550005,200.501526 440.976005,191.831526 455.375005,189.181526" id="Fill-188" fill="#FFCAA6"></path>
                    <path d="M649.656962,256.36563 C661.455962,270.85563 669.458962,287.98563 677.340962,304.91563 C694.631962,342.07563 711.922962,379.22563 729.212962,416.38563 C710.423962,424.29563 691.633962,432.19563 672.844962,440.10563 C650.861962,397.79563 611.106962,351.11563 595.522962,306.05563 C588.809962,286.64563 596.572962,261.42563 606.155962,241.38563 C616.501962,219.75563 640.842962,245.54563 649.656962,256.36563" id="Fill-189" fill="#FFCAA6"></path>
                    <path d="M459.577,590.8 L459.568,590.8 C459.568,590.8 643.632,605.99 785.503,593.33 C904.553,582.71 932.363,541.96 938.233,529.11 L944.603,529.76 C944.603,529.76 932.303,585.22 790.423,597.88 C648.55,610.54 464.487,595.34 464.487,595.34 L464.496,595.35 C421.42,587.77 378.635,579.34 335.257,570.76 C153.394,534.83 6.035,472.67 1.491,464.11 C1.306,463.77 1.147,463.39 1,463 C27.204,478.82 164.396,533.42 330.338,566.22 C373.716,574.79 416.501,583.22 459.577,590.8" id="Fill-190" fill="#D6E9FF"></path>
                    <path d="M4.23161506,435 L938.226615,529.42 C932.356615,542.27 904.546615,583.02 785.496615,593.64 C643.625615,606.3 459.561615,591.11 459.561615,591.11 L459.570615,591.11 C416.494615,583.53 373.709615,575.1 330.331615,566.53 C164.389615,533.73 27.1976151,479.13 0.99361506,463.31 C-2.46938494,454.19 4.23161506,435 4.23161506,435" id="Fill-191" fill="#4598F1"></path>
                    <path d="M914.621,619.16 C802.581,629.88 704.025,627.08 611,617.17 C698.62,625.53 791.531,627.31 896.191,617.29 C1122.611,595.63 1128.741,549 1128.741,549 L1147.171,550.86 C1147.171,550.86 1141.041,597.49 914.621,619.16" id="Fill-192" fill="#8DB9E9"></path>
                    <path d="M897.026,616.94 C792.366,626.96 699.455,625.18 611.835,616.82 C561.699,611.47 513.169,604.07 465.009,595.59 L465,595.58 C465,595.58 649.063,610.78 790.936,598.12 C932.816,585.46 945.116,530 945.116,530 L1129.576,548.65 C1129.576,548.65 1123.446,595.28 897.026,616.94" id="Fill-193" fill="#EFE6E8"></path>
                    <g id="Group-10" transform="translate(0.000000, 438.000000)" fill="#D6E9FF">
                        <polyline id="Fill-194" points="841.389 146.71 2.34 12 0 18.06 825.079 149.93 841.389 146.71"></polyline>
                        <path d="M268.562148,70.65 L141.465148,50 C141.465148,50 81.9541485,76.98 90.9201485,82.69 C99.8851485,88.4 268.562148,70.65 268.562148,70.65" id="Fill-195"></path>
                        <path d="M173.092,13.56 L172.766,17.05 C172.766,17.05 60.274,13.78 57.387,10.79 C54.499,7.79 39,0 39,0 L173.092,13.56" id="Fill-196"></path>
                    </g>
                    <path d="M479.636,373.261788 L479.627,373.271788 C479.627,373.271788 663.059,395.231788 799.938,436.071788 C914.798,470.341788 934.558,515.901788 937.938,529.671788 L944.308,530.321788 C944.308,530.321788 942.488,473.431788 805.608,432.591788 C668.727,391.751788 485.294,369.791788 485.294,369.791788 L485.304,369.791788 C441.631,368.601788 398.087,368.301788 353.936,368.031788 C168.828,366.861788 12.73,398.331788 6.689,405.831788 C6.442,406.131788 6.217,406.471788 6,406.821788 C34.639,396.551788 179.365,370.441788 348.268,371.501788 C392.42,371.781788 435.963,372.081788 479.636,373.261788" id="Fill-197" fill="#D6E9FF"></path>
                    <path d="M3.89429917,434.781343 L937.889299,529.201343 C934.509299,515.431343 914.749299,469.871343 799.889299,435.601343 C663.010299,394.761343 479.578299,372.801343 479.578299,372.801343 L479.587299,372.791343 C435.914299,371.611343 392.371299,371.311343 348.219299,371.031343 C179.316299,369.971343 34.5902992,396.081343 5.95129917,406.351343 C0.867299169,414.611343 3.89429917,434.781343 3.89429917,434.781343" id="Fill-198" fill="#4598F1"></path>
                    <path d="M932.307,436.86 C824.357,403.9 727.119,386.9 634,378 C721.527,387.34 813.027,404.2 913.887,435 C1132.067,501.61 1129.457,548.6 1129.457,548.6 L1147.88841,550.46 C1147.88841,550.46 1150.487,503.47 932.307,436.86" id="Fill-199" fill="#8DB9E9"></path>
                    <path d="M913.904,434.58 C813.044,403.78 721.544,386.92 634.017,377.58 C583.831,372.78 534.838,370.33 486.01,369 L486,369 C486,369 669.433,390.96 806.314,431.8 C943.194,472.64 945.014,529.53 945.014,529.53 L1129.47543,548.18 C1129.47543,548.18 1132.084,501.19 913.904,434.58" id="Fill-200" fill="#EFE6E8"></path>
                    <g id="Group-9" transform="translate(4.000000, 368.000000)" fill="#D6E9FF">
                        <polyline id="Fill-201" points="849.447 87.3 1.175 51.42 0 45 834.037 80.87 849.447 87.3"></polyline>
                        <path d="M273.307475,47.6015222 L144.767475,42.4115222 C144.767475,42.4115222 91.3584751,4.0115222 101.213475,0.201522196 C111.066475,-3.5984778 273.307475,47.6015222 273.307475,47.6015222" id="Fill-202"></path>
                        <path d="M169.092,83.6598562 L169.418,80.1598562 C169.418,80.1598562 58.423,60.8398562 55.037,63.1998562 C51.651,65.5598562 35,70.0998562 35,70.0998562 L169.092,83.6598562" id="Fill-203"></path>
                    </g>
                    <g id="Upper-Body" transform="translate(260.000000, 11.000000)">
                        <path d="M368.44978,69.3890098 C376.20578,115.11901 360.27078,163.28901 331.36778,168.18901 C302.46578,173.08901 271.53878,132.86901 263.78278,87.1390098 C256.02678,41.4090098 274.37878,7.48900978 303.28178,2.58900978 C332.18378,-2.31099022 360.69378,23.6590098 368.44978,69.3890098" id="Fill-204" fill="#FFCAA6"></path>
                        <path d="M524.174757,370.471431 C525.904757,369.081431 527.764757,367.741431 529.924757,367.211431 C532.084757,366.681431 534.614757,367.121431 536.044757,368.831431 C538.724757,372.021431 536.224757,377.341431 538.464757,380.861431 C540.164757,383.541431 543.884757,384.031431 547.034757,383.671431 C550.184757,383.311431 553.414757,382.381431 556.464757,383.241431 C559.524757,384.101431 562.044757,387.831431 560.254757,390.451431 C561.804757,388.231431 565.694757,388.931431 567.004757,391.301431 C568.314757,393.671431 567.454757,396.771431 565.674757,398.821431 C563.904757,400.861431 561.394757,402.101431 558.954757,403.281431 C554.174757,405.591431 549.174757,407.961431 543.864757,407.971431 C540.294757,407.991431 536.814757,406.931431 533.404757,405.881431 C526.584757,403.791431 519.774757,401.691431 512.964757,399.601431 C497.018757,394.711431 517.334757,376.001431 524.174757,370.471431" id="Fill-205" fill="#FFCAA6"></path>
                        <path d="M88.0082424,528.887047 C90.1312424,535.797047 92.2742424,543.087047 90.6772424,550.137047 C89.0292424,557.407047 83.4132424,563.417047 76.6562424,566.567047 C69.4022424,569.957047 61.1522424,570.307047 53.1512424,570.607047 C46.5242424,570.847047 38.7252424,570.537047 34.9472424,565.087047 C31.1732424,559.647047 33.6112424,552.237047 36.1542424,546.127047 C39.7002424,537.597047 43.2452424,529.067047 46.7912424,520.547047 C49.6802424,513.597047 52.7182424,506.427047 58.1912424,501.257047 C79.4862424,481.137047 83.6592424,514.747047 88.0082424,528.887047" id="Fill-206" fill="#FFCAA6"></path>
                        <path d="M213.127811,177.632366 C213.127811,177.632366 194.768811,171.512366 166.138811,182.972366 C137.508811,194.422366 8.35681144,301.302366 0.721811436,333.112366 C-6.91218856,364.922366 48.4388114,521.362366 52.2558114,518.532366 C56.0738114,515.712366 81.8708114,505.952366 81.8708114,505.952366 C81.8708114,505.952366 61.3778114,374.622366 62.8608114,367.232366 C64.3438114,359.832366 168.986811,284.122366 168.986811,284.122366 C168.986811,284.122366 223.215811,235.272366 213.127811,177.632366" id="Fill-207" fill="#FFCAA6"></path>
                        <path d="M246,183.03 C246,183.03 259.094,180.57 265.774,165.94 C272.455,151.3 282.21,127 282.21,127 L328.123,156.39 C328.123,156.39 318.408,184.53 318.58,194.57 C318.752,204.61 329.508,208.94 329.508,208.94 C329.508,208.94 367.791,223.65 377.235,233.32 C321.444,252.46 248.812,201.39 246,183.03" id="Fill-208" fill="#FFCAA6"></path>
                        <path d="M323.85,168.5 C323.85,168.5 310.646,166.06 299.618,156.52 C288.59,146.98 279.762,132 279.762,132 L264,168.5 C264,168.5 275.018,173.54 293.256,175.85 C311.494,178.15 321.74,175.85 321.74,175.85 L323.85,168.5" id="Fill-209" fill="#F2B186"></path>
                        <path d="M133.111,310.15 L179.382,273 C179.382,273 169.838,320.74 166.339,356.6 C154.247,356.89 128,356.39 128,356.39 C128,356.39 130.738,322.33 133.111,310.15" id="Fill-210" fill="#F2B186"></path>
                        <path d="M349,326.19 C350.285,324.63 360.147,303 360.147,303 L394.205,369.64 L373.895,367.34 L349,326.19" id="Fill-211" fill="#F2B186"></path>
                        <path d="M368.973179,68.8152296 C368.973179,68.8152296 364.195179,40.6452296 344.472179,31.7352296 C324.749179,22.8252296 320.296179,44.4552296 306.618179,61.3152296 C292.939179,78.1752296 275.742179,92.5552296 260.492179,91.2252296 C245.241179,89.8952296 242.677179,12.4752296 296.756179,1.4252296 C350.834179,-9.6147704 369.297179,46.4052296 368.973179,68.8152296" id="Fill-212" fill="#26407A"></path>
                    </g>
                </g>
            </g>
        </g>
    </g>
</svg>