<?xml version="1.0" encoding="UTF-8"?>
<svg width="477px" height="1054px" viewBox="0 0 477 1054" version="1.1" xmlns="http://www.w3.org/2000/svg" xmlns:xlink="http://www.w3.org/1999/xlink">
    <!-- Generator: Sketch 51.3 (57544) - http://www.bohemiancoding.com/sketch -->
    <title>Group 3</title>
    <desc>Created with Sketch.</desc>
    <defs></defs>
    <g id="Onboarding" stroke="none" stroke-width="1" fill="none" fill-rule="evenodd">
        <g id="Group-6" transform="translate(-7025.000000, -2352.000000)">
            <g id="Tile-2" transform="translate(5630.000000, 1661.000000)">
                <g id="Group-3" transform="translate(1395.000000, 691.000000)">
                    <path d="M206.745179,26.9074365 C206.745179,26.9074365 213.815179,-0.162563485 250.845179,0.197436515 C287.865179,0.567436515 300.335179,37.2274365 341.025179,41.2574365 C381.715179,45.2874365 397.475179,-3.47256348 442.565179,0.197436515 C487.655179,3.86743652 482.155179,63.6174365 459.055179,80.4774365 C435.965179,97.3374365 400.035179,104.187437 383.175179,132.407437 C366.315179,160.637437 345.785179,187.887437 255.245179,189.717437 C164.695179,191.547437 158.465179,155.997437 162.865179,122.267437 C167.265179,88.5474365 172.765179,71.3174365 175.695179,54.8174365 C178.625179,38.3274365 190.145179,17.3174365 206.745179,26.9074365" id="Fill-213" fill="#26407A"></path>
                    <path d="M326.715179,495.207437 C326.715179,495.207437 328.665179,546.667437 327.195179,589.307437 C325.735179,631.937437 313.995179,744.157437 313.995179,744.157437 L219.435179,507.357437 L265.385179,448.157437 C265.385179,448.157437 319.725179,472.007437 326.715179,495.207437" id="Fill-214" fill="#FFCAA6"></path>
                    <path d="M158.925179,485.947437 C158.925179,485.947437 159.325179,529.887437 167.145179,635.907437 C174.965179,741.937437 225.795179,1020.11744 225.795179,1020.11744 L245.345179,1020.11744 C245.345179,1020.11744 252.185179,929.247437 251.215179,885.077437 C250.235179,840.897437 244.625179,816.787437 243.655179,797.347437 C242.675179,777.907437 253.045179,574.057437 253.045179,574.057437 L158.925179,485.947437" id="Fill-215" fill="#FFCAA6"></path>
                    <path d="M227.815179,485.947437 C227.815179,485.947437 228.215179,529.887437 236.035179,635.907437 C243.855179,741.937437 294.685179,1020.11744 294.685179,1020.11744 L314.235179,1020.11744 C314.235179,1020.11744 321.075179,929.247437 320.105179,885.077437 C319.125179,840.897437 313.515179,816.787437 312.545179,797.347437 C311.565179,777.907437 321.935179,574.057437 321.935179,574.057437 L227.815179,485.947437" id="Fill-216" fill="#FFCAA6"></path>
                    <path d="M54.4851787,125.017437 C54.4851787,125.017437 53.0151787,269.197437 54.4851787,269.197437 C55.9451787,269.197437 140.995179,215.437437 173.745179,206.637437 C206.485179,197.837437 230.435179,235.477437 191.335179,262.357437 C152.235179,289.237437 33.4651787,334.697437 11.4751787,328.827437 C-10.5248213,322.967437 37.3751787,126.967437 37.3751787,126.967437 L54.4851787,125.017437" id="Fill-217" fill="#F2B186"></path>
                    <path d="M254.495179,209.207437 C254.495179,209.207437 288.505179,205.457437 298.855179,224.077437 C309.195179,242.707437 304.025179,258.997437 290.575179,283.307437 C277.125179,307.627437 261.525179,364.647437 262.455179,384.617437 C263.915179,416.107437 314.975179,430.997437 326.715179,500.207437 C295.155179,464.517437 254.625179,473.927437 241.175179,502.377437 C227.725179,530.837437 233.935179,573.767437 232.375179,573.767437 C230.825179,573.767437 220.995179,569.627437 212.205179,566.007437 C203.415179,562.387437 161.515179,521.007437 158.925179,489.967437 C156.335179,458.927437 156.855179,419.957437 156.335179,391.337437 C155.815179,362.717437 149.615179,337.887437 139.265179,329.087437 C111.975179,305.897437 124.525179,287.577437 141.985179,262.747437 C159.445179,237.917437 182.295179,205.667437 182.295179,205.667437 L203.555179,203.837437 L254.495179,209.207437" id="Fill-218" fill="#4598F1"></path>
                    <path d="M271.015179,108.997437 C259.915179,150.127437 228.115179,184.197437 202.115179,177.187437 C176.115179,170.167437 165.765179,124.727437 176.865179,83.5974365 C187.955179,42.4674365 216.305179,21.2174365 242.305179,28.2274365 C268.295179,35.2374365 282.105179,67.8574365 271.015179,108.997437" id="Fill-219" fill="#FFCAA6"></path>
                    <path d="M191.825179,208.777437 C191.825179,208.777437 167.995179,240.487437 183.395179,241.227437 C198.785179,241.957437 253.045179,208.777437 253.045179,208.777437 C253.045179,208.777437 247.175179,206.577437 243.515179,192.287437 C239.845179,177.987437 243.515179,150.127437 243.515179,150.127437 L210.885179,150.127437 C210.885179,150.127437 207.225179,181.667437 201.355179,193.937437 C195.495179,206.217437 191.825179,208.777437 191.825179,208.777437" id="Fill-220" fill="#FFCAA6"></path>
                    <path d="M277.115179,269.757437 C277.115179,269.757437 254.465179,297.857437 215.625179,324.257437 C176.795179,350.647437 156.905179,442.647437 156.905179,442.647437 C156.905179,442.647437 157.325179,367.397437 149.945179,350.007437 C142.565179,332.607437 136.385179,329.197437 136.385179,329.197437 L277.115179,269.757437" id="Fill-221" fill="#316DAB"></path>
                    <path d="M140.265179,132.407437 C140.265179,132.407437 138.795179,276.597437 140.265179,276.597437 C141.725179,276.597437 226.775179,222.837437 259.515179,214.037437 C292.265179,205.237437 316.215179,242.877437 277.115179,269.757437 C238.015179,296.637437 119.245179,342.087437 97.2451787,336.227437 C75.2551787,330.357437 123.155179,134.367437 123.155179,134.367437 L140.265179,132.407437" id="Fill-222" fill="#FFCAA6"></path>
                    <path d="M206.255179,177.947437 C206.255179,177.947437 217.365179,179.087437 227.385179,172.487437 C237.405179,165.887437 242.455179,160.827437 242.455179,160.827437 L241.895179,172.987437 C241.895179,172.987437 236.315179,182.017437 223.665179,188.987437 C211.005179,195.947437 200.505179,195.677437 200.505179,195.677437 L206.255179,177.947437" id="Fill-223" fill="#F2B186"></path>
                    <path d="M15.1551787,87.3974365 L34.4251787,87.3974365 C34.4251787,87.3974365 43.7851787,89.0374365 47.9651787,101.777437 C52.1351787,114.517437 47.1251787,125.147437 47.1251787,125.147437 C47.1251787,125.147437 44.9951787,132.567437 39.3451787,135.577437 C33.6851787,138.587437 15.9851787,138.257437 15.9851787,138.257437 L15.1551787,87.3974365" id="Fill-224" fill="#51495B"></path>
                    <path d="M0.885178721,112.827437 C0.885178721,126.867437 7.44517872,138.257437 15.5451787,138.257437 C23.6451787,138.257437 30.2151787,126.867437 30.2151787,112.827437 C30.2151787,98.7874365 23.6451787,87.3974365 15.5451787,87.3974365 C7.44517872,87.3974365 0.885178721,98.7874365 0.885178721,112.827437" id="Fill-225" fill="#352F3F"></path>
                    <path d="M3.67517872,112.827437 C3.67517872,124.817437 8.99517872,134.537437 15.5451787,134.537437 C22.1051787,134.537437 27.4151787,124.817437 27.4151787,112.827437 C27.4151787,100.837437 22.1051787,91.1174365 15.5451787,91.1174365 C8.99517872,91.1174365 3.67517872,100.837437 3.67517872,112.827437" id="Fill-226" fill="#80CFD4"></path>
                    <path d="M45.2151787,87.3974365 L64.4951787,87.3974365 C64.4951787,87.3974365 73.8551787,89.0374365 78.0251787,101.777437 C82.1951787,114.517437 77.1851787,125.147437 77.1851787,125.147437 C77.1851787,125.147437 75.0551787,132.567437 69.4051787,135.577437 C63.7451787,138.587437 46.0451787,138.257437 46.0451787,138.257437 L45.2151787,87.3974365" id="Fill-227" fill="#51495B"></path>
                    <path d="M54.6551787,130.367437 L135.485179,130.147437 C142.365179,130.127437 147.925179,124.537437 147.905179,117.667437 L147.885179,106.047437 C147.865179,99.1574365 142.275179,93.5974365 135.385179,93.6174365 L54.5651787,93.8274365 C47.6851787,93.8474365 42.1251787,99.4374365 42.1451787,106.317437 L42.1651787,117.937437 C42.1851787,124.817437 47.7751787,130.387437 54.6551787,130.367437" id="Fill-228" fill="#51495B"></path>
                    <path d="M30.9451787,112.827437 C30.9451787,126.867437 37.5051787,138.257437 45.6051787,138.257437 C53.7051787,138.257437 60.2751787,126.867437 60.2751787,112.827437 C60.2751787,98.7874365 53.7051787,87.3974365 45.6051787,87.3974365 C37.5051787,87.3974365 30.9451787,98.7874365 30.9451787,112.827437" id="Fill-229" fill="#352F3F"></path>
                    <path d="M33.7351787,112.827437 C33.7351787,124.817437 39.0551787,134.537437 45.6051787,134.537437 C52.1651787,134.537437 57.4851787,124.817437 57.4851787,112.827437 C57.4851787,100.837437 52.1651787,91.1174365 45.6051787,91.1174365 C39.0551787,91.1174365 33.7351787,100.837437 33.7351787,112.827437" id="Fill-230" fill="#80CFD4"></path>
                    <path d="M133.415179,138.517437 C133.415179,138.517437 140.015179,133.637437 140.265179,132.407437 C140.505179,131.187437 136.835179,104.547437 133.415179,99.4174365 C129.995179,94.2874365 113.375179,85.2474365 108.005179,85.7374365 C102.625179,86.2274365 91.8751787,88.6674365 88.4551787,89.1574365 C85.0251787,89.6474365 77.6951787,92.5774365 79.4051787,95.2674365 C81.1151787,97.9574365 103.845179,101.107437 110.935179,112.117437 C118.025179,123.127437 120.225179,145.857437 133.415179,138.517437" id="Fill-231" fill="#FFCAA6"></path>
                    <path d="M232.375179,561.687437 L246.045179,724.597437 L244.915179,748.897437 C244.915179,748.897437 221.885179,636.517437 214.365179,608.187437 C206.855179,579.857437 173.495179,525.077437 173.495179,525.077437 C173.495179,525.077437 216.285179,558.927437 232.375179,561.687437" id="Fill-232" fill="#F2B186"></path>
                    <path d="M314.495179,1016.14744 C314.495179,1016.14744 317.435179,1040.40744 316.465179,1047.97744 C315.485179,1055.55744 305.215179,1052.86744 296.425179,1052.86744 C287.625179,1052.86744 244.615179,1052.86744 244.615179,1052.86744 C244.615179,1052.86744 239.965179,1049.44744 242.655179,1046.51744 C245.345179,1043.57744 256.585179,1043.33744 273.695179,1036.24744 C290.805179,1029.16744 293.605179,1020.55744 293.425179,1012.88744 C293.245179,1005.21744 314.495179,1016.14744 314.495179,1016.14744" id="Fill-233" fill="#FFCAA6"></path>
                    <path d="M245.825179,1016.14744 C245.825179,1016.14744 248.765179,1040.40744 247.785179,1047.97744 C246.815179,1055.55744 236.545179,1052.86744 227.745179,1052.86744 C218.955179,1052.86744 175.935179,1052.86744 175.935179,1052.86744 C175.935179,1052.86744 171.295179,1049.44744 173.985179,1046.51744 C176.675179,1043.57744 187.915179,1043.33744 205.025179,1036.24744 C222.125179,1029.16744 224.935179,1020.55744 224.755179,1012.88744 C224.575179,1005.21744 245.825179,1016.14744 245.825179,1016.14744" id="Fill-234" fill="#FFCAA6"></path>
                    <path d="M174.769648,98.477138 C174.769648,98.477138 180.388918,68.9972787 208.632549,50.0027466 C212.371177,72.1720328 227.325687,116.499807 293.352114,111.748474 C351.493435,74.5476991 282.238194,12.7911733 231.732736,21.8942947 C181.227277,30.9974161 174.123885,82.8301358 174.769648,98.477138" id="Fill-235" fill="#26407A"></path>
                </g>
            </g>
        </g>
    </g>
</svg>