<?xml version="1.0" encoding="UTF-8"?>
<svg width="421px" height="309px" viewBox="0 0 421 309" version="1.1" xmlns="http://www.w3.org/2000/svg" xmlns:xlink="http://www.w3.org/1999/xlink">
    <!-- Generator: Sketch 49 (51002) - http://www.bohemiancoding.com/sketch -->
    <title>Group 5</title>
    <desc>Created with Sketch.</desc>
    <defs>
        <ellipse id="path-1" cx="21.8349109" cy="21.8149038" rx="21.8349109" ry="21.8149038"></ellipse>
        <ellipse id="path-3" cx="21.8349109" cy="21.8149038" rx="21.8349109" ry="21.8149038"></ellipse>
        <ellipse id="path-5" cx="29.6926843" cy="29.7475962" rx="29.6926843" ry="29.7475962"></ellipse>
    </defs>
    <g id="Onboarding" stroke="none" stroke-width="1" fill="none" fill-rule="evenodd">
        <g id="Captcha" transform="translate(-496.000000, -184.000000)">
            <g id="Group-5" transform="translate(496.000000, 183.000000)">
                <g id="Group-4" opacity="0.219825634">
                    <g id="Robot-Head" fill-rule="nonzero">
                        <rect id="Rectangle-path" fill="#A4CFF2" x="76" y="236" width="66" height="28"></rect>
                        <rect id="Rectangle-path" fill="#7BABF1" x="121" y="236" width="21" height="28"></rect>
                        <rect id="Rectangle-path" fill="#FFFFFF" x="150" y="21" width="15" height="58"></rect>
                        <rect id="Rectangle-path" fill="#FFFFFF" x="53" y="21" width="15" height="58"></rect>
                        <rect id="Rectangle-path" fill="#D3E6F8" x="53" y="53" width="15" height="26"></rect>
                        <rect id="Rectangle-path" fill="#D3E6F8" x="150" y="53" width="15" height="26"></rect>
                        <path d="M67.9419499,81.9999956 L53.0528405,81.9999956 C52.2431768,81.9999956 51.4666749,81.6811879 50.8941563,81.1137066 C50.3216376,80.5462253 50,79.7765555 50,78.9740157 L50,21.0259843 C50,19.3547818 51.3668032,18.0000044 53.0528405,18.0000044 L67.9419499,18.0000044 C68.7525158,17.9986334 69.5303567,18.3168357 70.1040026,18.8844657 C70.6776485,19.4520956 71.0000012,20.2225491 71,21.0259843 L71,78.9740157 C71.0000012,79.7774509 70.6776485,80.5479044 70.1040026,81.1155343 C69.5303567,81.6831643 68.7525158,82.0013666 67.9419499,81.9999956 Z M56.1108906,75.9480358 L64.894319,75.9480358 L64.894319,24.0364728 L56.1108906,24.0364728 L56.1108906,75.9480358 Z" id="Shape" fill="#4C4372"></path>
                        <path d="M164.94716,81.9999956 L150.05805,81.9999956 C149.247484,82.0013666 148.469643,81.6831643 147.895997,81.1155343 C147.322351,80.5479044 146.999999,79.7774509 147,78.9740157 L147,21.0259843 C146.999999,20.2225491 147.322351,19.4520956 147.895997,18.8844657 C148.469643,18.3168357 149.247484,17.9986334 150.05805,18.0000044 L164.94716,18.0000044 C166.633197,18.0000044 168,19.3547818 168,21.0259843 L168,78.9740157 C168,80.6452182 166.633197,81.9999956 164.94716,81.9999956 Z M153.105681,75.9480358 L161.8839,75.9480358 L161.8839,24.0364728 L153.105681,24.0364728 L153.105681,75.9480358 Z" id="Shape" fill="#4C4372"></path>
                        <circle id="Oval" fill="#FD919E" transform="translate(158.000000, 22.000000) rotate(-78.465379) translate(-158.000000, -22.000000) " cx="158" cy="22" r="18"></circle>
                        <path d="M168.490971,7 C172.091086,14.2528052 170.232685,22.9872192 163.978993,28.2061211 C157.725301,33.425023 148.672555,33.7963032 142,29.1075455 C145.28079,35.7170364 152.381909,39.6268949 159.816696,38.9173739 C167.251483,38.2078529 173.458416,33.0279724 175.389882,25.9210625 C177.321347,18.8141526 174.571679,11.2728711 168.490971,7 Z" id="Shape" fill="#E8677D"></path>
                        <path d="M158.005534,42.9999993 C149.511476,43.0021139 141.852621,37.8870438 138.600621,30.0401641 C135.34862,22.1932843 137.143974,13.1600847 143.149433,7.15313064 C149.154891,1.14617658 158.187644,-0.651426359 166.035333,2.59862055 C173.883023,5.84866745 179,13.506248 179,22.0003065 C178.985605,33.5901084 169.595333,42.9827187 158.005534,42.9999993 Z M158.005534,7.13271224 C149.794389,7.13271224 143.13794,13.7891609 143.13794,22.0003065 C143.13794,30.2114521 149.794389,36.8679009 158.005534,36.8679009 C166.21668,36.8679009 172.873129,30.2114521 172.873129,22.0003065 C172.864485,13.7927441 166.213097,7.14135634 158.005534,7.13271224 Z" id="Shape" fill="#4C4372"></path>
                        <circle id="Oval" fill="#FD919E" transform="translate(61.000000, 22.000000) rotate(-78.465379) translate(-61.000000, -22.000000) " cx="61" cy="22" r="18"></circle>
                        <path d="M71.4909713,7 C75.0910864,14.2528052 73.2326848,22.9872192 66.9789929,28.2061211 C60.7253009,33.425023 51.6725551,33.7963032 45,29.1075455 C48.2807896,35.7170364 55.3819088,39.6268949 62.8166958,38.9173739 C70.2514829,38.2078529 76.4584165,33.0279724 78.3898816,25.9210625 C80.3213467,18.8141526 77.5716795,11.2728711 71.4909713,7 Z" id="Shape" fill="#E8677D"></path>
                        <path d="M61,43 C49.4020203,43 40,33.5979797 40,22 C40,10.4020203 49.4020203,1 61,1 C72.5979797,1 82,10.4020203 82,22 C81.9884731,33.5932018 72.5932018,42.9884731 61,43 Z M61,7.1321882 C52.7887343,7.1321882 46.1321882,13.7887343 46.1321882,22 C46.1321882,30.2112657 52.7887343,36.8678118 61,36.8678118 C69.2112657,36.8678118 75.8678118,30.2112657 75.8678118,22 C75.8591676,13.7923175 69.2076825,7.14083242 61,7.1321882 Z" id="Shape" fill="#4C4372"></path>
                        <rect id="Rectangle-path" fill="#D3E6F8" x="24" y="65" width="171" height="171" rx="39.77"></rect>
                        <rect id="Rectangle-path" fill="#FFFFFF" x="73" y="180" width="72" height="35"></rect>
                        <rect id="Rectangle-path" fill="#D3E6F8" x="131" y="180" width="14" height="35"></rect>
                        <path d="M24.020901,215.308012 C24.020901,220.795869 26.2103027,226.058957 30.1074628,229.939457 C34.0046229,233.819958 39.2903063,236 44.8017229,236 L61,236 L61,193.695109 L24,181 L24.020901,215.308012 Z" id="Shape" fill="#D3E6F8"></path>
                        <path d="M194.979099,215.308012 C194.979099,226.735882 185.675208,236 174.198277,236 L158,236 L158,193.695109 L195,181 L194.979099,215.308012 Z" id="Shape" fill="#D3E6F8"></path>
                        <path d="M194,80.8715068 C191.752982,71.5645665 183.386672,65.0024121 173.764886,65 L165,65 L165,236 L173.764886,236 C183.385132,235.998166 191.750923,229.438571 194,220.133699 L194,80.8715068 Z" id="Shape" fill="#A4CFF2"></path>
                        <path d="M16.7002519,99.000025 L24,99 L24,161 L16.7002519,160.999975 C13.0691534,161.006838 9.58436944,159.602038 7.01431071,157.095338 C4.44425198,154.588638 2.99999321,151.18591 3,147.637471 L3,112.35219 C3.00280116,108.805543 4.44829902,105.405473 7.01805278,102.90101 C9.58780653,100.396546 13.0709858,98.9931639 16.7002519,99.000025 Z" id="Shape" fill="#7BABF1"></path>
                        <path d="M207.691047,99 L215,99 L215,161 L207.691047,161 C200.12969,161 194,155.017398 194,147.637485 L194,112.352176 C194.005847,104.976301 200.133825,98.9999978 207.691047,99 Z" id="Shape" fill="#7BABF1" transform="translate(204.500000, 130.000000) rotate(180.000000) translate(-204.500000, -130.000000) "></path>
                        <circle id="Oval" fill="#FD919E" transform="translate(64.500000, 125.500000) rotate(-45.000000) translate(-64.500000, -125.500000) " cx="64.5" cy="125.5" r="24.5"></circle>
                        <path d="M77.6805081,105 C83.8031123,114.862327 82.4108263,127.74756 74.3302284,136.00594 C66.2496305,144.264319 53.6452047,145.68374 44,139.421515 C49.3622386,148.059041 59.3399207,152.473496 69.1698039,150.557466 C78.9996872,148.641435 86.6885179,140.783442 88.5657279,130.734811 C90.4429378,120.68618 86.127876,110.48452 77.6805081,105 Z" id="Shape" fill="#E8677D"></path>
                        <path d="M174.26371,239 L44.7362899,239 C31.6321997,238.9828 21.0143289,228.362914 21,215.259206 L21,85.7355923 C21.0143346,72.6327287 31.6330411,62.0143342 44.7362899,62 L174.26371,62 C187.366959,62.0143342 197.985665,72.6327287 198,85.7355923 L198,215.259206 C197.985671,228.362914 187.3678,238.9828 174.26371,239 Z M44.7362899,68.1172598 C35.0129786,68.1544025 27.143107,76.0333367 27.1174396,85.7563993 L27.1174396,215.280013 C27.1431654,225.011165 35.0256593,232.893427 44.7570975,232.919152 L174.284518,232.919152 C184.015956,232.893427 191.89845,225.011165 191.924176,215.280013 L191.924176,85.7563993 C191.89845,76.0252472 184.015956,68.1429848 174.284518,68.1172598 L44.7362899,68.1172598 Z" id="Shape" fill="#4C4372"></path>
                        <path d="M23.893676,163.999889 L16.6667062,163.999889 C7.46674076,163.988511 0.011583225,156.664892 0,147.627251 L0,112.367475 C0.0144776349,103.331851 7.4687893,96.0113723 16.6667062,96 L23.9199559,96 C24.737735,95.9999988 25.5219434,96.3194814 26.0997074,96.8880198 C26.6774713,97.4565583 27.0013545,98.2274737 26.999959,99.0308227 L26.999959,160.95874 C27.0042085,161.76837 26.6779651,162.545897 26.0941935,163.117428 C25.5104218,163.688959 24.7178279,164.006808 23.893676,163.999889 Z M16.6667062,102.040992 C10.8611133,102.040992 6.15475024,106.664316 6.15475024,112.367475 L6.15475024,147.601435 C6.15475024,153.304594 10.8611133,157.927917 16.6667062,157.927917 L20.8399528,157.927917 L20.8399528,102.040992 L16.6667062,102.040992 Z" id="Shape" fill="#4C4372"></path>
                        <path d="M201.333271,164 L194.080012,164 C192.378971,164 191.000004,162.645364 191.000004,160.974336 L191.000004,99.0308276 C190.998609,98.2274773 191.322493,97.4565606 191.900257,96.8880213 C192.478022,96.3194819 193.262232,95.9999988 194.080012,96 L201.333271,96 C210.5312,96.0113723 217.985521,103.331863 217.999999,112.367502 L217.999999,147.601519 C218.002907,156.649255 210.543503,163.988602 201.333271,164 Z M197.160019,157.948671 L201.333271,157.948671 C207.138872,157.948671 211.845241,153.32534 211.845241,147.622172 L211.845241,112.367502 C211.845241,106.664334 207.138872,102.041002 201.333271,102.041002 L197.160019,102.041002 L197.160019,157.948671 Z" id="Shape" fill="#4C4372"></path>
                        <path d="M60.927872,238.99996 C59.2418436,238.997089 57.8765696,237.630258 57.876572,235.945179 L57.876572,195.806298 L23.0677999,183.941051 C21.4717616,183.396406 20.6196891,181.661769 21.1646427,180.066632 C21.7095963,178.471495 23.4452133,177.619904 25.0412516,178.16455 L61.9172014,190.742752 C63.1590693,191.159878 63.9968359,192.321622 64,193.631003 L64,235.945179 C64.0000106,236.75807 63.6758433,237.537441 63.0992541,238.110774 C62.5226648,238.684107 61.7412112,239.004115 60.927872,238.99996 Z" id="Shape" fill="#4C4372"></path>
                        <path d="M157.063873,239 C155.370897,238.997127 153.999998,237.62909 154,235.942525 L154,193.591026 C154.003177,192.28049 154.844396,191.117721 156.091381,190.700228 L193.119273,178.110931 C194.689559,177.67859 196.32487,178.54607 196.841307,180.085349 C197.357743,181.624628 196.574682,183.297349 195.059029,183.892528 L160.132973,195.76824 L160.132973,235.937316 C160.134362,236.749111 159.811624,237.528131 159.235905,238.102646 C158.660187,238.67716 157.878755,239.000001 157.063873,239 Z" id="Shape" fill="#4C4372"></path>
                        <path d="M144.947085,218 L73.0529152,218 C71.3668465,218 70.0000178,216.633883 70.0000178,214.948692 L70.0000178,180.061722 C69.9972482,179.250662 70.3176688,178.471872 70.8904985,177.897386 C71.4633283,177.322901 72.2414279,176.999995 73.0529152,177 L144.947085,177 C146.633153,177 147.999982,178.366117 147.999982,180.051308 L147.999982,214.938278 C148.002752,215.749338 147.682331,216.528128 147.109501,217.102614 C146.536672,217.677099 145.758572,218.000005 144.947085,218 Z M76.1214417,211.892177 L141.878558,211.892177 L141.878558,183.102616 L76.1214417,183.102616 L76.1214417,211.892177 Z" id="Shape" fill="#4C4372"></path>
                        <path d="M144.947101,200 L73.0528987,200 C71.3668293,200 70,198.656854 70,197 C70,195.343146 71.3668293,194 73.0528987,194 L144.947101,194 C146.633171,194 148,195.343146 148,197 C148,198.656854 146.633171,200 144.947101,200 Z" id="Shape" fill="#4C4372"></path>
                        <path d="M97,218 C95.3431458,218 94,216.633536 94,214.947917 L94,180.052083 C94,178.366464 95.3431458,177 97,177 C98.6568542,177 100,178.366464 100,180.052083 L100,214.947917 C100,216.633536 98.6568542,218 97,218 Z" id="Shape" fill="#4C4372"></path>
                        <path d="M121,218 C119.343146,218 118,216.633536 118,214.947917 L118,180.052083 C118,178.366464 119.343146,177 121,177 C122.656854,177 124,178.366464 124,180.052083 L124,214.947917 C124,216.633536 122.656854,218 121,218 Z" id="Shape" fill="#4C4372"></path>
                        <path d="M142.91439,266.999888 L76.0595051,266.999888 C74.3697871,266.999888 73,265.621605 73,263.921406 L73,236.078482 C73,234.378283 74.3697871,233 76.0595051,233 L142.940495,233 C144.630213,233 146,234.378283 146,236.078482 L146,263.921406 C146.00003,264.742442 145.674109,265.529473 145.094682,266.107561 C144.515255,266.685649 143.730335,267.006893 142.91439,266.999888 Z M79.0929052,260.837671 L139.854885,260.837671 L139.854885,239.156964 L79.0929052,239.156964 L79.0929052,260.837671 Z" id="Shape" fill="#4C4372"></path>
                        <circle id="Oval" fill="#FD919E" transform="translate(153.500000, 125.500000) rotate(-75.140000) translate(-153.500000, -125.500000) " cx="153.5" cy="125.5" r="24.5"></circle>
                        <path d="M166.680508,105 C172.803112,114.862327 171.410826,127.74756 163.330228,136.00594 C155.249631,144.264319 142.645205,145.68374 133,139.421515 C138.362239,148.059041 148.339921,152.473496 158.169804,150.557466 C167.999687,148.641435 175.688518,140.783442 177.565728,130.734811 C179.442938,120.68618 175.127876,110.48452 166.680508,105 Z" id="Shape" fill="#E8677D"></path>
                        <path d="M64.5,153 C49.3121694,153 37,140.687831 37,125.5 C37,110.312169 49.3121694,98 64.5,98 C79.6878306,98 92,110.312169 92,125.5 C91.9829653,140.680769 79.680769,152.982965 64.5,153 Z M64.5,104.058449 C55.8209823,104.058449 47.9966534,109.286838 44.6758186,117.305405 C41.3549838,125.323971 43.1916986,134.553416 49.3294277,140.689671 C55.4671567,146.825927 64.6970426,148.660425 72.7148112,145.337665 C80.7325798,142.014905 85.9590902,134.189321 85.9570064,125.510303 C85.9484863,113.662623 76.3476782,104.05951 64.5,104.048145 L64.5,104.058449 Z" id="Shape" fill="#4C4372"></path>
                        <path d="M153.505553,153 C142.382535,153.002083 132.353603,146.303343 128.095564,136.027612 C123.837526,125.751882 126.189003,113.92297 134.053428,106.057072 C141.917852,98.1911737 153.746324,95.8374804 164.022852,100.093594 C174.29938,104.349707 181,114.377384 181,125.500402 C180.98014,140.677766 168.682914,152.977296 153.505553,153 Z M153.505553,104.059164 C144.826194,104.057081 137.000398,109.284072 133.677988,117.302356 C130.355579,125.32064 132.190995,134.550795 138.328229,140.688029 C144.465463,146.825263 153.695619,148.660679 161.713903,145.338269 C169.732187,142.01586 174.959178,134.190064 174.957095,125.510705 C174.948579,113.665207 165.351046,104.063064 153.505553,104.048861 L153.505553,104.059164 Z" id="Shape" fill="#4C4372"></path>
                    </g>
                    <g id="Group-3" transform="translate(43.000000, 104.000000)">
                        <g id="x-button" transform="translate(89.000000, 0.000000)">
                            <g id="Shape">
                                <mask id="mask-2" fill="white">
                                    <use xlink:href="#path-1"></use>
                                </mask>
                                <use id="Mask" fill="#E21B1B" fill-rule="nonzero" xlink:href="#path-1"></use>
                            </g>
                            <g id="Group" transform="translate(13.000000, 12.000000)" fill="#FFFFFF" fill-rule="nonzero">
                                <path d="M18.5913703,20.3210727 C18.1473476,20.3210727 17.7040186,20.1519442 17.3647575,19.8136871 L0.555722193,3.01936053 C-0.12210625,2.34215318 -0.12210625,1.24559019 0.555722193,0.569075986 C1.23355064,-0.107438219 2.33111931,-0.108131369 3.00825397,0.569075986 L19.8179831,17.3634025 C20.4958115,18.0406099 20.4958115,19.1371729 19.8179831,19.8136871 C19.478722,20.1519442 19.035393,20.3210727 18.5913703,20.3210727 Z" id="Shape"></path>
                                <path d="M1.78164119,20.3210727 C1.33761846,20.3210727 0.894289521,20.1519442 0.555028407,19.8136871 C-0.122800035,19.1364797 -0.122800035,18.0399167 0.555028407,17.3634025 L17.3647575,0.569075986 C18.042586,-0.108131369 19.1401546,-0.108131369 19.8172893,0.569075986 C20.4944239,1.24628334 20.4951177,2.34284633 19.8172893,3.01936053 L3.00825397,19.8136871 C2.66968664,20.1519442 2.22566391,20.3210727 1.78164119,20.3210727 Z" id="Shape"></path>
                            </g>
                        </g>
                        <g id="x-button-copy">
                            <g id="Shape">
                                <mask id="mask-4" fill="white">
                                    <use xlink:href="#path-3"></use>
                                </mask>
                                <use id="Mask" fill="#E21B1B" fill-rule="nonzero" xlink:href="#path-3"></use>
                            </g>
                            <g id="Group" transform="translate(13.000000, 12.000000)" fill="#FFFFFF" fill-rule="nonzero">
                                <path d="M18.2888862,20 C17.8509725,20 17.413743,19.833039 17.0791495,19.4991169 L0.501377033,2.9200221 C-0.167125678,2.25149365 -0.167125678,1.16898394 0.501377033,0.501139764 C1.16987974,-0.166704411 2.2523478,-0.167388677 2.92016627,0.501139764 L19.498623,17.0802345 C20.1671257,17.748763 20.1671257,18.8312727 19.498623,19.4991169 C19.1640295,19.833039 18.7268,20 18.2888862,20 Z" id="Shape"></path>
                                <path d="M1.71113572,20 C1.27321635,20 0.835981233,19.8330411 0.501383465,19.4991233 C-0.167127822,18.8306034 -0.167127822,17.7481076 0.501383465,17.080272 L17.0800528,0.501389899 C17.7485641,-0.167129966 18.8310461,-0.167129966 19.4988731,0.501389899 C20.1667001,1.16990976 20.1673844,2.25240559 19.4988731,2.9202412 L2.92088798,19.4991233 C2.58697446,19.8330411 2.14905509,20 1.71113572,20 Z" id="Shape"></path>
                            </g>
                        </g>
                    </g>
                </g>
                <g id="Consulting" transform="translate(174.000000, 34.000000)" fill-rule="nonzero">
                    <circle id="Oval" fill="#F0C48A" cx="111.5" cy="137.5" r="111.5"></circle>
                    <g id="Group" transform="translate(11.000000, 0.000000)">
                        <g transform="translate(0.000000, 56.062500)" id="Shape">
                            <path d="M157.142767,139.477031 L113.197396,123.590859 L69.9931444,123.590859 L26.0483102,139.477031 C12.5791604,144.346383 3.60026471,157.16475 3.60026471,171.525375 L3.60026471,216.776977 L179.590275,216.776977 L179.590275,171.525375 C179.590275,157.16475 170.611917,144.346383 157.142767,139.477031 Z" fill="#D3E6F8"></path>
                            <path d="M21.6005134,189.712266 L21.6005134,216.776977 L31.7644492,216.776977 L31.7644492,179.516977 C26.1509599,179.517516 21.6005134,184.081758 21.6005134,189.712266 Z" fill="#7BABF1"></path>
                            <path d="M169.42634,147.225516 L169.42634,216.776977 L179.590275,216.776977 L179.590275,171.525375 C179.590275,162.1845 175.789011,153.498047 169.42634,147.225516 Z" fill="#7BABF1"></path>
                            <path d="M158.211184,136.504102 L114.265813,120.61793 C113.923468,120.493945 113.561775,120.430336 113.197396,120.430336 L69.9931444,120.430336 C69.6293021,120.430336 69.2676096,120.493945 68.9247273,120.61793 L24.979893,136.504102 C10.3074305,141.807938 0.449294118,155.88232 0.449294118,171.525914 L0.449294118,216.776977 C0.449294118,218.522461 1.86005615,219.9375 3.60026471,219.9375 L179.590275,219.9375 C181.330484,219.9375 182.741246,218.522461 182.741246,216.776977 L182.741246,171.525914 C182.741246,155.88232 172.88311,141.807938 158.211184,136.504102 Z M176.439842,213.616992 L6.75123529,213.616992 L6.75123529,171.525914 C6.75123529,158.538281 14.9358048,146.854102 27.1167273,142.4505 L70.5440134,126.751383 L112.647602,126.751383 L156.074888,142.4505 C168.25581,146.854102 176.439842,158.538281 176.439842,171.525914 L176.439842,213.616992 Z" fill="#4C4372"></path>
                            <path d="M91.9327781,179.517516 C88.1078663,179.517516 85.0074144,182.627906 85.0074144,186.463875 C85.0074144,190.300383 88.1078663,193.410234 91.9327781,193.410234 C95.7576898,193.410234 98.8581417,190.300383 98.8581417,186.463875 C98.8581417,182.627367 95.7571524,179.517516 91.9327781,179.517516 Z" fill="#4C4372"></path>
                            <g transform="translate(28.483957, 176.273438)" fill="#4C4372">
                                <path d="M3.28049198,0.083015625 C1.54028342,0.083015625 0.12952139,1.49805469 0.12952139,3.24353906 L0.12952139,40.5035391 C0.12952139,42.2490234 1.54028342,43.6640625 3.28049198,43.6640625 C5.02070053,43.6640625 6.43146257,42.2490234 6.43146257,40.5035391 L6.43146257,3.24353906 C6.43146257,1.49805469 5.02070053,0.083015625 3.28049198,0.083015625 Z"></path>
                                <path d="M122.942134,0.083015625 C121.201925,0.083015625 119.791163,1.49805469 119.791163,3.24353906 L119.791163,40.5035391 C119.791163,42.2490234 121.201925,43.6640625 122.942134,43.6640625 C124.682342,43.6640625 126.093104,42.2490234 126.093104,40.5035391 L126.093104,3.24353906 C126.092567,1.49805469 124.681805,0.083015625 122.942134,0.083015625 Z"></path>
                            </g>
                            <path d="M91.9327781,155.789063 C88.1078663,155.789063 85.0074144,158.898914 85.0074144,162.735422 C85.0074144,166.57193 88.1078663,169.681781 91.9327781,169.681781 C95.7576898,169.681781 98.8581417,166.571391 98.8581417,162.735422 C98.8581417,158.899453 95.7571524,155.789063 91.9327781,155.789063 Z" fill="#4C4372"></path>
                            <path d="M69.9931444,93.6766641 L69.9931444,119.817961 C69.9931444,131.784609 79.6647914,141.485578 91.5952701,141.485578 C103.525749,141.485578 113.197396,131.784609 113.197396,119.817961 L113.197396,93.6766641 L69.9931444,93.6766641 Z" fill="#D3E6F8"></path>
                            <path d="M101.367955,93.6766641 L101.367955,139.139039 C108.385757,135.560742 113.197396,128.254828 113.197396,119.817422 L113.197396,93.676125 L101.367955,93.676125 L101.367955,93.6766641 Z" fill="#A4CFF2"></path>
                            <path d="M113.197396,90.5161406 L69.9931444,90.5161406 C68.2529358,90.5161406 66.8421738,91.9311797 66.8421738,93.6766641 L66.8421738,119.817961 C66.8421738,133.507992 77.9460802,144.645563 91.5952701,144.645563 C105.243922,144.645563 116.347829,133.507992 116.347829,119.817961 L116.347829,93.6766641 C116.348366,91.9311797 114.937604,90.5161406 113.197396,90.5161406 Z M110.046425,119.817961 C110.046425,130.022414 101.76888,138.325055 91.5952701,138.325055 C81.421123,138.325055 73.1435775,130.022414 73.1435775,119.817961 L73.1435775,96.8366484 L110.046425,96.8366484 L110.046425,119.817961 Z" fill="#4C4372"></path>
                            <path d="M91.5952701,3.57344531 C69.4637727,3.57344531 51.5231791,21.5689688 51.5231791,43.7670234 L51.5231791,73.3674844 C51.5231791,95.5660781 69.4643102,113.561063 91.5952701,113.561063 C113.726767,113.561063 131.667361,95.5660781 131.667361,73.3674844 L131.667361,43.7670234 C131.667898,21.5689688 113.726767,3.57344531 91.5952701,3.57344531 Z" fill="#FFFFFF"></path>
                            <path d="M93.520893,3.6225 C108.737775,9.323625 119.575115,24.0314062 119.575115,41.2824844 L119.575115,70.8829453 C119.575115,93.0815391 101.633984,111.076523 79.5030241,111.076523 C78.8575668,111.076523 78.2158717,111.057656 77.5779385,111.027469 C81.9418957,112.662445 86.6637834,113.561063 91.5958075,113.561063 C113.727305,113.561063 131.667898,95.5660781 131.667898,73.3674844 L131.667898,43.7670234 C131.667898,22.2163828 114.757564,4.63000781 93.520893,3.6225 Z" fill="#D3E6F8"></path>
                            <path d="M91.5952701,3.57344531 C69.4637727,3.57344531 51.5231791,21.5689687 51.5231791,43.7670234 L51.5231791,43.8430312 L53.3101444,43.8430312 L63.2085882,43.8430312 C67.7681711,43.8430312 71.4640989,40.1358984 71.4640989,35.5630312 L71.4640989,32.2240781 L80.3333583,41.1202266 C81.8817032,42.6727266 83.9814545,43.5454688 86.1709572,43.5454688 L130.408693,43.5454688 L131.665211,43.5454688 C131.545364,21.4492969 113.652602,3.57344531 91.5952701,3.57344531 Z" fill="#7BABF1"></path>
                            <path d="M91.5952701,0.412921875 C67.7622594,0.412921875 48.3722086,19.8612188 48.3722086,43.7670234 L48.3722086,73.3674844 C48.3722086,97.27275 67.7622594,116.722125 91.5952701,116.722125 C115.428281,116.722125 134.818332,97.27275 134.818332,73.3674844 L134.818332,43.7670234 C134.818332,19.8612188 115.428818,0.412921875 91.5952701,0.412921875 Z M128.516928,73.3674844 C128.516928,93.78825 111.953775,110.401617 91.5958075,110.401617 C71.2373021,110.401617 54.6741497,93.78825 54.6741497,73.3674844 L54.6741497,43.7670234 C54.6741497,23.3467969 71.2373021,6.73342969 91.5958075,6.73342969 C111.954313,6.73342969 128.516928,23.3467969 128.516928,43.7670234 L128.516928,73.3674844 Z" fill="#4C4372"></path>
                            <path d="M130.408155,40.3849453 L86.1709572,40.3849453 C84.8080267,40.3849453 83.5257112,39.8518125 82.5615561,38.8847344 L73.6922968,29.989125 C72.7910214,29.0856563 71.4361524,28.8155859 70.2586364,29.3045156 C69.0816578,29.7934453 68.3136658,30.9454219 68.3136658,32.2240781 L68.3136658,35.5624922 C68.3136658,38.3861016 66.0236631,40.6825078 63.2085882,40.6825078 L53.3106818,40.6825078 C51.5704733,40.6825078 50.1597112,42.0975469 50.1597112,43.8430313 C50.1597112,45.5885156 51.5704733,47.0035547 53.3106818,47.0035547 L63.2085882,47.0035547 C68.2137032,47.0035547 72.4771604,43.7524688 74.0088449,39.2453672 L78.1056979,43.3541016 C80.2602674,45.5152031 83.1247861,46.7054531 86.1709572,46.7054531 L130.408155,46.7054531 C132.148364,46.7054531 133.559126,45.2904141 133.559126,43.5449297 C133.558588,41.7999844 132.147826,40.3849453 130.408155,40.3849453 Z" fill="#4C4372"></path>
                            <polygon fill="#A4CFF2" points="69.9931444 123.591398 57.6235829 128.062383 74.9880481 162.735422 91.5941952 141.485578"></polygon>
                            <polygon fill="#A4CFF2" points="113.533291 123.591398 91.9327781 141.485578 108.538925 162.735422 125.90339 128.062383"></polygon>
                            <path d="M93.6004332,139.049016 L71.9993824,121.154297 C71.1411016,120.442734 69.9721845,120.238969 68.9247273,120.61793 L56.5546283,125.089992 C55.7070963,125.39618 55.0310053,126.052219 54.6967219,126.891539 C54.3629759,127.730859 54.4032834,128.67368 54.8079706,129.481195 L72.1724358,164.154234 C72.6566631,165.121313 73.6003957,165.7725 74.6747246,165.880313 C74.7795241,165.890555 74.8843235,165.895945 74.9885856,165.895945 C75.9505909,165.895945 76.8674519,165.453375 77.4677647,164.685211 L94.0739118,143.434828 C95.1278182,142.086094 94.9182193,140.140078 93.6004332,139.049016 Z M75.5733128,156.863953 L62.0332219,129.827813 L69.3718717,127.175086 L87.2200267,141.959953 L75.5733128,156.863953 Z" fill="#4C4372"></path>
                            <path d="M128.829176,126.891539 C128.49543,126.052219 127.818802,125.39618 126.97127,125.089992 L114.601709,120.61793 C113.555326,120.238969 112.385872,120.442734 111.527053,121.154297 L89.9265401,139.049016 C88.6092914,140.140078 88.3991551,142.086094 89.4530615,143.434828 L106.059209,164.685211 C106.660059,165.453375 107.576382,165.895945 108.538925,165.895945 C108.643187,165.895945 108.747987,165.890555 108.852786,165.880313 C109.926578,165.7725 110.870848,165.121313 111.355075,164.154234 L128.719003,129.481195 C129.123152,128.67368 129.16346,127.730859 128.829176,126.891539 Z M107.95366,156.863414 L96.3069465,141.959953 L114.154564,127.175086 L121.493214,129.827813 L107.95366,156.863414 Z" fill="#4C4372"></path>
                        </g>
                        <g transform="translate(109.636364, 0.000000)" id="Shape">
                            <path d="M76.6745134,3.16052344 L14.6498904,3.16052344 C8.52583957,3.16052344 3.56103209,8.13984375 3.56103209,14.2824609 L3.56103209,48.6417656 C3.56103209,54.7843828 8.52583957,59.7642422 14.6498904,59.7642422 L49.2562861,59.7642422 L49.2562861,78.1203984 L65.7227005,60.8391328 L66.3412861,59.7637031 L76.6745134,59.7637031 C82.7985642,59.7637031 87.7633717,54.7838438 87.7633717,48.6412266 L87.7633717,14.2824609 C87.7633717,8.13984375 82.7985642,3.16052344 76.6745134,3.16052344 Z" fill="#FD919E"></path>
                            <path d="M76.6745134,3.16052344 L76.2934733,3.16052344 L76.2934733,59.7642422 L76.6745134,59.7642422 C82.7985642,59.7642422 87.7633717,54.7843828 87.7633717,48.6417656 L87.7633717,14.2824609 C87.7633717,8.13984375 82.7985642,3.16052344 76.6745134,3.16052344 Z" fill="#E8677D"></path>
                            <path d="M76.6745134,0 L14.6498904,0 C6.79799198,0 0.41059893,6.40729688 0.41059893,14.2824609 L0.41059893,48.6417656 C0.41059893,56.5174688 6.79799198,62.9242266 14.6498904,62.9242266 L46.1058529,62.9242266 L46.1058529,78.1203984 C46.1058529,79.4179219 46.8969545,80.5839141 48.1013422,81.0604453 C48.4764706,81.2086875 48.8682594,81.2803828 49.2562861,81.2803828 C50.1129545,81.2803828 50.9524251,80.9299922 51.5597246,80.2771875 L67.7106658,62.9242266 L76.6750508,62.9242266 C84.5269492,62.9242266 90.9143422,56.5174688 90.9143422,48.6417656 L90.9143422,14.2824609 C90.9138048,6.40729688 84.5264118,0 76.6745134,0 Z M84.6124011,48.6417656 C84.6124011,53.0318906 81.051369,56.6037188 76.6745134,56.6037188 L66.3412861,56.6037188 C65.4679572,56.6037188 64.633861,56.9670469 64.038385,57.6069141 L52.4072567,70.104 L52.4072567,59.7637031 C52.4072567,58.0187578 50.9964947,56.6037188 49.2562861,56.6037188 L14.6498904,56.6037188 C10.2730348,56.6037188 6.71200267,53.0318906 6.71200267,48.6417656 L6.71200267,14.2824609 C6.71200267,9.89233594 10.2730348,6.32050781 14.6498904,6.32050781 L76.6745134,6.32050781 C81.051369,6.32050781 84.6124011,9.89233594 84.6124011,14.2824609 L84.6124011,48.6417656 Z" fill="#4C4372"></path>
                            <g transform="translate(15.585561, 22.640625)" fill="#4C4372">
                                <path d="M56.8663396,0.1035 L3.28694118,0.1035 C1.54673262,0.1035 0.135970588,1.51853906 0.135970588,3.26348438 C0.135970588,5.00896875 1.54673262,6.42400781 3.28694118,6.42400781 L56.8663396,6.42400781 C58.6065481,6.42400781 60.0173102,5.00896875 60.0173102,3.26348438 C60.0173102,1.51853906 58.6065481,0.1035 56.8663396,0.1035 Z"></path>
                                <path d="M30.0769091,14.8398516 L3.28747861,14.8398516 C1.54727005,14.8398516 0.136508021,16.2548906 0.136508021,17.9998359 C0.136508021,19.7453203 1.54727005,21.1603594 3.28747861,21.1603594 L30.0769091,21.1603594 C31.8171176,21.1603594 33.2278797,19.7453203 33.2278797,17.9998359 C33.2273422,16.2548906 31.8165802,14.8398516 30.0769091,14.8398516 Z"></path>
                            </g>
                        </g>
                    </g>
                </g>
                <g id="icons" transform="translate(361.000000, 103.000000)">
                    <g id="Group">
                        <g id="Path-6">
                            <mask id="mask-6" fill="white">
                                <use xlink:href="#path-5"></use>
                            </mask>
                            <use id="Mask" fill="#04BAED" xlink:href="#path-5"></use>
                            <path d="M14.2524885,32.9773352 L59.0388799,79.2135989 L84.5501711,53.6551287 L47.0594154,16.0950399 C37.6795274,29.8725119 30.8160246,37.8797514 26.4689071,40.1167582 C22.1217896,42.3537651 18.0496501,39.9739574 14.2524885,32.9773352 Z" fill="#1190B4" opacity="0.525418931" mask="url(#mask-6)"></path>
                        </g>
                        <polyline id="Path-3" stroke="#FFFFFF" stroke-width="7" stroke-linecap="round" stroke-linejoin="round" points="14.9311784 32.7884615 26.359441 42.8365385 44.4541902 16.9986264"></polyline>
                    </g>
                </g>
            </g>
        </g>
    </g>
</svg>