<?xml version="1.0" encoding="UTF-8"?>
<svg width="143px" height="143px" viewBox="0 0 143 143" version="1.1" xmlns="http://www.w3.org/2000/svg" xmlns:xlink="http://www.w3.org/1999/xlink">
    <!-- Generator: Sketch 49 (51002) - http://www.bohemiancoding.com/sketch -->
    <title>caution-button</title>
    <desc>Created with Sketch.</desc>
    <defs>
        <rect id="path-1" x="59.4532376" y="45.6923077" width="23.6184094" height="50.5879121"></rect>
        <ellipse id="path-2" cx="71.2624423" cy="71.3942308" rx="71.2624423" ry="71.3942308"></ellipse>
    </defs>
    <g id="Extension" stroke="none" stroke-width="1" fill="none" fill-rule="evenodd">
        <g id="Mobile" transform="translate(-336.000000, -222.000000)">
            <g id="caution-button" transform="translate(336.000000, 222.000000)">
                <g id="Rectangle-2">
                    <use fill="#ECBC3B" fill-rule="evenodd" xlink:href="#path-1"></use>
                    <rect stroke="#979797" stroke-width="1" x="59.9532376" y="46.1923077" width="22.6184094" height="49.5879121"></rect>
                </g>
                <g id="Group-23">
                    <mask id="mask-3" fill="white">
                        <use xlink:href="#path-2"></use>
                    </mask>
                    <use id="Mask" fill="#ECBC3B" xlink:href="#path-2"></use>
                    <polygon id="Path-5" fill="#B6912B" opacity="0.319010417" mask="url(#mask-3)" points="29.3194048 98.4737891 126.126816 195.46023 186.229739 135.246156 74.0372196 22.8461538"></polygon>
                    <path d="M115.612497,95.8017079 L77.2629754,25.3813592 C76.6968127,24.347989 75.9144693,23.5307875 74.914196,22.9309808 C73.9163714,22.3306486 72.8340684,22.0302198 71.669036,22.0302198 C70.5040037,22.0302198 69.4215258,22.3311742 68.4231765,22.9309808 C67.4248271,23.5307875 66.641959,24.347989 66.076321,25.3813592 L27.725925,95.8017079 C26.5605428,97.9034836 26.5937745,100.004033 27.82562,102.104583 C28.3921325,103.071035 29.1660806,103.838311 30.147989,104.404309 C31.130597,104.971357 32.1873641,105.255495 33.3193397,105.255495 L110.019607,105.255495 C111.152807,105.255495 112.209224,104.971357 113.191307,104.404309 C114.174265,103.838486 114.946989,103.071035 115.513676,102.104583 C116.745522,100.002807 116.779103,97.9034836 115.612497,95.8017079 Z M78.0624594,90.8002243 C78.0624594,91.266546 77.9032972,91.658067 77.5884709,91.9746121 C77.2724202,92.291858 76.8977769,92.4493423 76.4643659,92.4493423 L66.8768544,92.4493423 C66.4441431,92.4493423 66.0694997,92.291858 65.7534491,91.9746121 C65.4370486,91.658067 65.2789358,91.266546 65.2789358,90.8002243 L65.2789358,81.2972129 C65.2789358,80.8308913 65.4372235,80.4393703 65.7534491,80.1228251 C66.0694997,79.8055793 66.4436184,79.648095 66.8768544,79.648095 L76.4636663,79.648095 C76.8972522,79.648095 77.2717206,79.8055793 77.5879462,80.1228251 C77.9032972,80.4393703 78.0619347,80.8308913 78.0619347,81.2972129 L78.0619347,90.8002243 L78.0624594,90.8002243 Z M77.9632891,72.0956814 C77.9286582,72.4288684 77.7537547,72.7035462 77.4384037,72.9205907 C77.1216534,73.1374601 76.730744,73.2453692 76.2646261,73.2453692 L67.026222,73.2453692 C66.5604539,73.2453692 66.1609743,73.1367594 65.8283078,72.9205907 C65.4945919,72.7028455 65.3284335,72.4288684 65.3284335,72.0944552 L64.4796267,49.2390891 C64.4796267,48.7718915 64.6463098,48.4218875 64.9791512,48.1887267 C65.4118625,47.8220809 65.8113421,47.6386704 66.1779399,47.6386704 L77.1634553,47.6386704 C77.5304029,47.6386704 77.9295328,47.8213802 78.3622441,48.1887267 C78.6949106,48.4218875 78.860894,48.738783 78.860894,49.1388877 L77.9632891,72.0956814 Z" id="Shape" fill="#FFFFFF" fill-rule="nonzero" mask="url(#mask-3)"></path>
                </g>
                <path d="" id="Path-4" stroke="#979797"></path>
            </g>
        </g>
    </g>
</svg>