<?xml version="1.0" encoding="UTF-8"?>
<svg width="786px" height="1040px" viewBox="0 0 786 1040" version="1.1" xmlns="http://www.w3.org/2000/svg" xmlns:xlink="http://www.w3.org/1999/xlink">
    <!-- Generator: Sketch 51.3 (57544) - http://www.bohemiancoding.com/sketch -->
    <title>Group 8</title>
    <desc>Created with Sketch.</desc>
    <defs></defs>
    <g id="Onboarding" stroke="none" stroke-width="1" fill="none" fill-rule="evenodd">
        <g id="Group-8">
            <path d="M507.53,6.732 C507.53,6.732 538.09,-4.594 565.6,15.631 C593.11,35.857 584.39,76.307 587.63,91.274 C590.86,106.241 597.19,127.799 585.57,152.456 C573.95,177.111 513.2,171.771 513.2,171.771 L470.79,181.297 C470.79,181.297 471.94,167.928 461.82,152.456 C451.71,136.983 440.39,144.669 424.21,121.208 C408.03,97.746 417.33,82.375 424.21,65.385 C431.08,48.396 418.54,34.643 433.04,16.845 C455.68,-10.958 481.65,5.114 507.53,6.732" id="Fill-59" fill="#FA9837"></path>
            <path d="M166.15,162.856 C147.38,161.898 129.32,168.197 115.25,180.634 C101.17,193.07 92.73,210.173 91.44,228.851 L1.32,223.452 C6.95,135.412 83.1,68.145 171.53,73.093 L166.15,162.856" id="Fill-60" fill="#EFE6E8"></path>
            <path d="M0.63,224.059 L92.05,229.537 C94.37,190.754 127.82,161.207 166.76,163.54 L172.21,72.483 C82.79,67.124 5.97,134.987 0.63,224.059 Z M2.01,222.843 C4.88,180.615 23.93,141.943 55.75,113.832 C87.57,85.717 128.4,71.494 170.84,73.705 L165.54,162.179 C126.94,160.551 93.84,189.798 90.85,228.166 L2.01,222.843 Z" id="Fill-61" fill="#EFE6E8"></path>
            <path d="M233.05,237.986 L324.47,243.464 C329.8,154.392 261.64,77.841 172.21,72.483 L166.76,163.54 C205.69,165.873 235.37,199.203 233.05,237.986" id="Fill-62" fill="#F15F46"></path>
            <path d="M152.89,395.041 L158.34,303.983 C119.41,301.65 89.73,268.319 92.05,229.537 L0.63,224.059 C-4.7,313.131 63.46,389.682 152.89,395.041" id="Fill-63" fill="#F15F46"></path>
            <path d="M323.78,244.071 C318.15,332.11 242,399.378 153.57,394.43 L158.95,304.667 C177.72,305.626 195.78,299.326 209.85,286.889 C223.93,274.453 232.37,257.35 233.65,238.672 L323.78,244.071" id="Fill-64" fill="#EFE6E8"></path>
            <path d="M152.89,395.041 C242.31,400.399 319.13,332.536 324.47,243.464 L233.05,237.986 C230.73,276.769 197.28,306.316 158.34,303.983 L152.89,395.041 Z M154.26,393.818 L159.56,305.344 C178.27,306.137 196.24,299.783 210.28,287.375 C224.33,274.967 232.81,257.956 234.25,239.358 L323.09,244.68 C320.22,286.908 301.17,325.58 269.35,353.691 C237.52,381.806 196.7,396.029 154.26,393.818 Z" id="Fill-65" fill="#EFE6E8"></path>
            <path d="M225.75,819.17 C220.07,827.21 213.69,835.77 204.24,838.52 C189.2,842.91 173.6,829.43 170.09,814.16 C166.44,798.3 172.17,781.93 178.09,766.76 C190.46,735.08 204.03,703.874 218.76,673.223 C218.36,673.956 257.44,700.248 260.96,702.709 C271.77,710.266 291.2,717.715 285.39,733.45 C279.93,748.25 265.66,762.65 256.59,775.49 C246.31,790.05 236.03,804.61 225.75,819.17" id="Fill-66" fill="#FFCAA6"></path>
            <path d="M175.42,825.96 C186.98,806.05 199.74,784.72 193.06,762.69 C187.5,744.34 170.53,732.21 154.63,721.489 C130.1,704.947 105.58,688.405 81.05,671.862 C75.91,668.394 65.55,665.027 64.36,674.532 C63.65,680.226 71.76,688.259 74.63,692.442 C85.43,708.206 96.47,723.811 107.74,739.25 C118.82,754.42 130.12,769.44 141.64,784.28 C144.85,788.43 173.13,821.66 175.42,825.96" id="Fill-67" fill="#FFCAA6"></path>
            <path d="M66.45,663.784 C60.34,663.41 54.43,666.207 50.68,671.043 C38.58,686.65 28.48,703.808 20.68,721.953 C18.97,725.925 23.55,729.634 27.06,727.112 L71.24,695.381 C84.34,685.971 87.45,665.07 66.45,663.784" id="Fill-68" fill="#FFCAA6"></path>
            <path d="M321.46,688.826 L285.46,744.29 C285.46,744.29 222.36,719.878 198.09,683.067 C221.14,631.291 241.77,591.245 241.77,591.245 L321.46,688.826" id="Fill-69" fill="#CC524C"></path>
            <path d="M714.09,997.36 C719.18,1003.34 724.61,1011.08 721.69,1018.37 C719.44,1024.02 712.69,1026.79 706.62,1026.35 C700.55,1025.91 694.98,1022.96 689.62,1020.08 C676.8,1013.18 663.97,1006.29 651.15,999.39 C629.66,987.83 608.08,976.21 588.59,961.53 C567.66,945.77 549.46,926.72 531.37,907.76 C474.3,847.97 417.23,788.17 360.17,728.381 C373,716.628 385.83,704.874 398.65,693.121 C407.2,685.289 424.15,661.934 435.18,669.982 C448.05,679.364 458.83,697.747 469.21,709.933 C480.35,722.998 491.48,736.06 502.61,749.13 C548,802.41 593.4,855.7 638.79,908.98 C651.45,923.84 664.11,938.7 676.77,953.56 C683.1,960.99 689.43,968.42 695.76,975.85 C699.14,979.82 714.09,992.57 714.09,997.36" id="Fill-70" fill="#FFCAA6"></path>
            <path d="M718.41,1039.56 C724.3,1039.87 729.61,1036.21 734.19,1032.49 C757.24,1013.71 775.2,988.75 785.67,960.93 C775.53,967.37 765.39,973.81 755.25,980.26 C745.25,986.61 734.86,993.11 723.13,994.81 C708.15,996.99 705.99,1003.51 703.52,1017.81 C701.8,1027.83 706.14,1038.91 718.41,1039.56" id="Fill-71" fill="#FFCAA6"></path>
            <path d="M263.21,488.095 C263.21,488.095 225.19,538.659 238.54,591.245 C251.89,643.831 284.25,664.461 303.66,684.686 C323.08,704.911 357.87,738.89 357.87,738.89 C357.87,738.89 378.5,723.923 402.77,703.697 C427.04,683.472 444.43,662.438 444.43,662.438 C444.43,662.438 388.61,584.773 387.4,580.323 C386.18,575.873 402.36,544.322 402.36,544.322 C402.36,544.322 310.54,498.208 263.21,488.095" id="Fill-72" fill="#F15F46"></path>
            <path d="M628.16,449.172 C632.83,460.607 637.59,472.675 636.07,484.933 C634.73,495.704 628.21,505.777 618.78,511.143 C609.34,516.509 597.19,516.923 587.55,511.941 C576.67,506.318 570.06,495.084 564.02,484.421 C548.45,456.902 532.87,429.382 517.3,401.862 C513.43,395.02 509.43,387.593 510.25,379.774 C510.93,373.307 514.82,367.691 518.59,362.392 C530.45,345.712 542.24,328.983 554.17,312.353 C559.1,305.47 563.23,297.401 569.62,305.811 C575.21,313.161 577.9,326.115 581.41,334.716 C589.27,353.947 597.12,373.178 604.98,392.409 C612.48,410.785 618.32,431.96 628.16,449.172" id="Fill-73" fill="#FFCAA6"></path>
            <path d="M632.09,494.897 C628.19,501.015 623.21,507.802 615.97,508.204 C609.21,508.579 603.56,503.043 600.14,497.204 C591.75,482.902 591.49,464.18 599.48,449.652 C606.06,437.682 617.33,429.129 628.27,420.945 C650.36,404.417 672.31,384.187 696.17,370.494 C708.1,379.292 701.16,386.417 694.68,396.605 C687.72,407.526 680.77,418.447 673.81,429.369 C659.91,451.211 646,473.054 632.09,494.897" id="Fill-74" fill="#FFCAA6"></path>
            <path d="M688.4,355.398 C689.2,353.689 690.35,352.003 692.1,351.291 C693.85,350.579 696.25,351.282 696.79,353.09 C700.16,346.554 704.21,340.364 708.84,334.651 C711.19,331.752 714.43,328.702 718.09,329.417 C722,330.179 723.76,334.654 724.86,338.481 C726.93,345.703 729.01,353.031 729.1,360.543 C729.18,368.054 727.02,375.903 721.67,381.179 C716.84,385.947 710.07,388.077 703.57,390.048 C695.35,392.541 684.96,392.268 684.57,381.494 C684.45,378.292 686.13,374.659 686.36,371.389 C686.76,365.771 685.9,360.746 688.4,355.398" id="Fill-75" fill="#FFCAA6"></path>
            <path d="M394.74,191.548 L467.49,226.231 L524.31,259.738 L565.6,302.437 C565.6,302.437 543.33,355.417 505.71,416.093 C468.1,476.769 419.55,524.703 401.96,554.435 C374.65,539.265 281.21,503.466 258.76,496.792 C236.31,490.118 231.46,481.623 231.46,481.623 C231.46,481.623 266.6,451.892 283.01,428.835 C299.42,405.778 340.07,265.616 341.89,263.796 C343.71,261.976 394.74,191.548 394.74,191.548" id="Fill-76" fill="#FA9837"></path>
            <path d="M144.75,215.038 C149.79,205.022 156.98,193.779 168.18,193.232 C176.6,192.82 184.07,199.033 188.39,206.27 C197.04,220.766 196.07,239.418 189.92,255.139 C183.78,270.86 173.06,284.294 162.5,297.461 C150.49,312.435 138.48,327.409 126.47,342.383 C120.5,349.834 107.93,374.798 97.01,363.478 C86.44,352.529 95.48,334.124 99.43,322.641 C105.5,304.973 112.15,287.502 119.35,270.264 C127.17,251.565 135.64,233.141 144.75,215.038" id="Fill-77" fill="#FFCAA6"></path>
            <path d="M180.44,185.203 C196.94,178.8 215.06,178.467 232.76,178.215 C267.04,177.728 301.32,177.24 335.61,176.753 C346.95,176.591 358.41,176.441 369.49,178.877 C380.57,181.312 391.4,186.608 398.37,195.55 C410.55,211.154 407.82,235.077 395.4,250.484 C382.98,265.892 362.96,273.608 343.24,275.338 C323.53,277.068 303.77,273.496 284.31,269.939 C250.27,263.722 216.24,257.504 182.21,251.287 C167.89,248.67 146.63,241.142 146.59,223.158 C146.55,205.813 166.02,190.803 180.44,185.203" id="Fill-78" fill="#FFCAA6"></path>
            <path d="M115.26,387.971 C115.73,391.096 116.05,394.719 113.85,396.994 C111.82,399.105 108.48,399.114 105.56,398.794 C95.37,397.675 85.44,394.297 76.68,388.974 C72.05,386.16 67.49,382.451 65.98,377.247 C64.38,371.767 66.6,365.764 70.22,361.352 C75.25,355.218 83.04,351.435 90.97,351.271 C97.35,351.138 108.33,353.871 111.31,360.287 C112.78,363.457 112.45,369.146 112.97,372.656 C113.74,377.761 114.5,382.866 115.26,387.971" id="Fill-79" fill="#FFCAA6"></path>
            <path d="M584.59,103.527 C590.34,153.497 570.29,204.737 538.71,208.37 C507.12,212.004 475.96,166.654 470.22,116.684 C464.47,66.714 486.31,31.046 517.89,27.413 C549.47,23.78 578.84,53.557 584.59,103.527" id="Fill-80" fill="#FFCAA6"></path>
            <path d="M525.52,215.085 C526.46,210.444 527.38,205.504 525.69,201.081 C524.04,196.745 520.18,193.704 516.49,190.887 C505.28,182.328 491.44,161.014 480.23,152.456 C478.1,174.952 458.13,210.18 438.94,211.754 C441.5,234.674 469.51,264.567 491.94,269.928 C503.39,272.665 517.58,270.565 519.97,257.459 C522.49,243.641 522.66,229.205 525.52,215.085" id="Fill-81" fill="#FFCAA6"></path>
            <path d="M527.43,262.963 C527.43,262.963 521.58,337.813 469.3,323.056 C420.56,309.303 435.05,210.767 435.05,210.767 C435.05,210.767 445.04,214.042 453.53,212.019 C462.03,209.997 468.72,200.504 468.72,200.504 L521.81,244.212 C521.81,244.212 519.9,255.177 527.43,262.963" id="Fill-82" fill="#FFCAA6"></path>
            <path d="M416,201.687 C416,201.687 420.28,245.29 398.53,273.504 C376.78,301.719 329.48,302.213 329.48,302.213 C329.48,302.213 330.97,286.246 330.97,282.302 C330.97,278.358 312.72,274.507 312.72,274.507 L369.49,178.877 C369.49,178.877 385.15,178.107 416,201.687" id="Fill-83" fill="#FFCAA6"></path>
            <path d="M539.83,275.788 C539.83,275.788 537.87,298.486 534.64,335.191 C531.4,371.897 515.87,399.296 515.87,399.296 L581.41,334.716 C581.41,334.716 575.49,313.095 567.6,301.112 C559.72,289.128 539.83,275.788 539.83,275.788" id="Fill-84" fill="#FFCAA6"></path>
            <path d="M526.63,207.442 C526.63,207.442 510.37,204.334 496.81,186.94 C483.26,169.546 480.23,156.01 480.23,156.01 C480.23,156.01 472.26,185.924 458.97,199.278 C484.07,222.941 525.52,215.085 525.52,215.085 L526.63,207.442" id="Fill-85" fill="#F2B186"></path>
            <path d="M618.48,428.488 C618.48,428.488 601.78,437.734 584.19,454.723 C595.31,437.532 615.38,420.378 615.38,420.378 L618.48,428.488" id="Fill-86" fill="#F2B186"></path>
            <polyline id="Fill-87" fill="#F2B186" points="190.77 252.851 198.09 230.222 198.09 254.187 190.77 252.851"></polyline>
            <path d="M321.56,276.839 C321.56,276.839 339.01,274.718 352.81,278.51 C366.61,282.302 370.86,289.28 370.86,289.28 C370.86,289.28 364.04,284.288 354.02,282.764 C344.01,281.24 330.64,288.487 330.64,288.487 C330.64,288.487 332.32,279.404 321.56,276.839" id="Fill-88" fill="#F2B186"></path>
            <path d="M360.76,297.088 C360.76,297.088 340.07,382.721 323.99,416.093 C307.91,449.465 268.61,500.001 268.61,500.001 C268.61,500.001 254.62,495.68 246.32,493.455 C238.03,491.23 230.14,481.32 230.14,481.32 C230.14,481.32 271.29,447.397 284.34,426.79 C297.39,406.183 329.48,302.213 329.48,302.213 C329.48,302.213 350.88,300.563 360.76,297.088" id="Fill-89" fill="#ED8629"></path>
            <path d="M251.22,508.187 L394.54,560.394 L398.3,552.484 C398.3,552.484 303.3,506.351 257.57,496.667 C255.38,500.406 251.22,508.187 251.22,508.187" id="Fill-90" fill="#CC524C"></path>
            <path d="M185.56,748.06 C185.56,748.06 184.13,762.15 179.68,775.09 C182.31,758.1 180.24,741.76 180.24,741.76 C180.24,741.76 183.36,744.87 185.56,748.06" id="Fill-91" fill="#F2B186"></path>
            <path d="M584.76,105.142 C584.76,105.142 581.8,72.97 565.6,61.138 C549.4,49.306 551.52,69.95 532.72,83.14 C513.91,96.33 501.77,76.032 484.17,105.142 C466.58,134.253 478.85,152.456 478.85,152.456 C478.85,152.456 448.93,109.983 458.97,64.475 C469.01,18.968 524.83,8.957 556.68,28.98 C588.54,49.003 584.76,105.142 584.76,105.142" id="Fill-92" fill="#FA9837"></path>
        </g>
    </g>
</svg>