<?xml version="1.0" encoding="UTF-8"?>
<svg width="250px" height="75px" viewBox="0 0 250 75" version="1.1" xmlns="http://www.w3.org/2000/svg" xmlns:xlink="http://www.w3.org/1999/xlink">
    <!-- Generator: Sketch 49 (51002) - http://www.bohemiancoding.com/sketch -->
    <title>Group 8</title>
    <desc>Created with Sketch.</desc>
    <defs>
        <ellipse id="path-1" cx="22.2695132" cy="22.3106971" rx="22.2695132" ry="22.3106971"></ellipse>
        <ellipse id="path-3" cx="22.2695132" cy="22.3106971" rx="22.2695132" ry="22.3106971"></ellipse>
        <ellipse id="path-5" cx="22.3311589" cy="22.3106971" rx="22.3311589" ry="22.3106971"></ellipse>
    </defs>
    <g id="Onboarding" stroke="none" stroke-width="1" fill="none" fill-rule="evenodd">
        <g id="Onbaording-1-Image-Hover" transform="translate(-595.000000, -499.000000)">
            <g id="Group-8" transform="translate(595.000000, 499.000000)">
                <g id="Group-6">
                    <g id="Group-3">
                        <g id="icons">
                            <g id="Group">
                                <g id="Path-6">
                                    <mask id="mask-2" fill="white">
                                        <use xlink:href="#path-1"></use>
                                    </mask>
                                    <use id="Mask" fill="#04BAED" xlink:href="#path-1"></use>
                                    <path d="M10.6893663,24.7330014 L44.2791599,59.4101992 L63.4126283,40.2413465 L35.2945616,12.0712799 C28.2596455,22.4043839 23.1120185,28.4098135 19.8516803,30.0875687 C16.5913422,31.7653238 13.5372376,29.9804681 10.6893663,24.7330014 Z" fill="#1190B4" opacity="0.525418931" mask="url(#mask-2)"></path>
                                </g>
                                <polyline id="Path-3" stroke="#FFFFFF" stroke-width="7" stroke-linecap="round" stroke-linejoin="round" points="11.1983838 24.5913462 19.7695808 32.1274038 33.3406426 12.7489698"></polyline>
                            </g>
                        </g>
                    </g>
                    <text id="Safe" font-family=".SFNSDisplay, .SF NS Display" font-size="20" font-weight="normal" fill="#015387">
                        <tspan x="2.66113281" y="74">Safe</tspan>
                    </text>
                </g>
                <g id="Group-5" transform="translate(89.000000, 0.000000)">
                    <g id="Group-23" transform="translate(13.000000, 0.000000)">
                        <mask id="mask-4" fill="white">
                            <use xlink:href="#path-3"></use>
                        </mask>
                        <use id="Mask" fill="#ECBC3B" xlink:href="#path-3"></use>
                        <polygon id="Path-5" fill="#B6912B" opacity="0.319010417" mask="url(#mask-4)" points="9.16231401 30.7730591 39.41463 61.0813219 58.1967936 42.2644237 23.1366311 7.13942308"></polygon>
                        <path d="M36.1289053,29.9380337 L24.1446798,7.93167473 C23.967754,7.60874656 23.7232716,7.35337108 23.4106863,7.16593151 C23.0988661,6.9783277 22.7606464,6.88444368 22.3965738,6.88444368 C22.0325011,6.88444368 21.6942268,6.97849193 21.3822426,7.16593151 C21.0702585,7.35337108 20.8256122,7.60874656 20.6488503,7.93167473 L8.66435156,29.9380337 C8.30016963,30.5948386 8.31055452,31.2512604 8.69550625,31.9076821 C8.87254141,32.2096985 9.11440019,32.4494722 9.42124656,32.6263464 C9.72831155,32.8035491 10.0585513,32.892342 10.4122936,32.892342 L34.3811272,32.892342 C34.7352521,32.892342 35.0653825,32.8035491 35.3722836,32.6263464 C35.6794579,32.449527 35.9209341,32.2096985 36.0980239,31.9076821 C36.4829756,31.2508772 36.4934698,30.5948386 36.1289053,29.9380337 Z M24.3945186,28.3750701 C24.3945186,28.5207956 24.3447804,28.6431459 24.2463972,28.7420663 C24.1476313,28.8412056 24.0305553,28.8904195 23.8951144,28.8904195 L20.899017,28.8904195 C20.7637947,28.8904195 20.6467187,28.8412056 20.5479528,28.7420663 C20.4490777,28.6431459 20.3996674,28.5207956 20.3996674,28.3750701 L20.3996674,25.405379 C20.3996674,25.2596535 20.4491323,25.1373032 20.5479528,25.0383828 C20.6467187,24.9392435 20.7636307,24.8900297 20.899017,24.8900297 L23.8948957,24.8900297 C24.0303913,24.8900297 24.1474127,24.9392435 24.2462332,25.0383828 C24.3447804,25.1373032 24.3943546,25.2596535 24.3943546,25.405379 L24.3943546,28.3750701 L24.3945186,28.3750701 Z M24.3635279,22.5299004 C24.3527057,22.6340214 24.2980484,22.7198582 24.1995011,22.7876846 C24.1005167,22.8554563 23.9783575,22.8891779 23.8326957,22.8891779 L20.9456944,22.8891779 C20.8001419,22.8891779 20.6753045,22.8552373 20.5713462,22.7876846 C20.46706,22.7196392 20.4151355,22.6340214 20.4151355,22.5295172 L20.1498833,15.3872153 C20.1498833,15.2412161 20.2019718,15.1318399 20.3059847,15.0589771 C20.441207,14.9444003 20.5660444,14.8870845 20.6806062,14.8870845 L24.1135798,14.8870845 C24.2282509,14.8870845 24.352979,14.9441813 24.4882013,15.0589771 C24.5921596,15.1318399 24.6440294,15.2308697 24.6440294,15.3559024 L24.3635279,22.5299004 Z" id="Shape" fill="#FFFFFF" fill-rule="nonzero" mask="url(#mask-4)"></path>
                    </g>
                    <text id="Caution" font-family=".SFNSDisplay, .SF NS Display" font-size="20" font-weight="normal" fill="#ECBC3B">
                        <tspan x="1.95703125" y="74">Caution</tspan>
                    </text>
                </g>
                <g id="Group-7" transform="translate(187.000000, 0.000000)">
                    <g id="x-button" transform="translate(10.000000, 0.000000)">
                        <g id="Shape">
                            <mask id="mask-6" fill="white">
                                <use xlink:href="#path-5"></use>
                            </mask>
                            <use id="Mask" fill="#E21B1B" fill-rule="nonzero" xlink:href="#path-5"></use>
                            <path d="M47.0443081,26.3891219 L33.8819481,13.302227 L13.7582411,34.0466762 L26.7874686,47.0012019 C37.4358445,45.5451415 45.8217086,37.0507201 47.0443081,26.3891219 Z" fill="#C40606" fill-rule="nonzero" mask="url(#mask-6)"></path>
                        </g>
                        <g id="Group" transform="translate(11.295455, 11.272727)" fill="#FFFFFF" fill-rule="nonzero">
                            <path d="M19.189808,20.9751878 C18.7314926,20.9751878 18.2738934,20.8006152 17.9237118,20.4514699 L0.573610338,3.11655074 C-0.126036728,2.41754476 -0.126036728,1.2856845 0.573610338,0.587393976 C1.2732574,-0.110896549 2.40615572,-0.11161201 3.10508667,0.587393976 L20.4559042,17.9223132 C21.1555513,18.6213192 21.1555513,19.7531794 20.4559042,20.4514699 C20.1057226,20.8006152 19.6481234,20.9751878 19.189808,20.9751878 Z" id="Shape"></path>
                            <path d="M1.83899045,20.9751878 C1.38067507,20.9751878 0.923075812,20.8006152 0.57289422,20.4514699 C-0.126752846,19.7524639 -0.126752846,18.6206037 0.57289422,17.9223132 L17.9237118,0.587393976 C18.6233588,-0.11161201 19.7562572,-0.11161201 20.4551881,0.587393976 C21.1541191,1.28639996 21.1548352,2.41826022 20.4551881,3.11655074 L3.10508667,20.4514699 C2.7556212,20.8006152 2.29730582,20.9751878 1.83899045,20.9751878 Z" id="Shape"></path>
                        </g>
                    </g>
                    <text id="Unsafe" font-family=".SFNSDisplay, .SF NS Display" font-size="20" font-weight="normal" fill="#E21B1B">
                        <tspan x="1.35253906" y="74">Unsafe</tspan>
                    </text>
                </g>
            </g>
        </g>
    </g>
</svg>