<?xml version="1.0" encoding="UTF-8"?>
<svg width="214px" height="237px" viewBox="0 0 214 237" version="1.1" xmlns="http://www.w3.org/2000/svg" xmlns:xlink="http://www.w3.org/1999/xlink">
    <!-- Generator: Sketch 49 (51002) - http://www.bohemiancoding.com/sketch -->
    <title>primary LOGO_cmyk</title>
    <desc>Created with Sketch.</desc>
    <defs></defs>
    <g id="Page-1" stroke="none" stroke-width="1" fill="none" fill-rule="evenodd">
        <g id="primary-LOGO_cmyk">
            <g id="Group">
                <path d="M196.343,111.371 C196.343,93.082 196.343,74.793 196.343,56.505 C163.667,51.23 134.019,41.698 107.05,22.147 C81.229,41.105 49.195,51.725 17.656,56.582 C17.656,79.225 17.656,101.866 17.656,124.509 C17.922,129.363 18.595,134.185 19.617,138.939 C20.719,144.068 21.829,149.241 23.234,153.816 C16.571,151.94 10.21,149.799 4.131,147.409 C3.724,145.512 3.483,144.392 3.076,142.495 C1.851,136.79 1.054,131.004 0.75,125.177 C0.747,125.104 0.741,125.03 0.738,124.956 C0.738,124.883 0.738,124.808 0.738,124.735 C0.738,99.565 0.738,74.398 0.738,49.228 C0.738,46.742 0.738,44.257 0.738,41.771 C3.203,41.46 5.67,41.147 8.135,40.836 C40.97,36.686 75.607,25.984 101.686,4.932 C103.433,3.521 105.177,2.112 106.925,0.701 C108.69,2.087 110.457,3.475 112.222,4.86 C140.112,26.747 171.301,35.953 205.986,40.852 C208.411,41.195 210.836,41.536 213.261,41.88 C213.261,44.329 213.261,46.778 213.261,49.228 C213.261,74.398 213.261,99.565 213.261,124.735 C213.261,124.81 213.261,124.884 213.261,124.959 C213.258,125.035 213.252,125.11 213.249,125.185 C212.942,130.962 212.308,136.301 211.331,141.364 C207.594,131.302 203.147,123.043 196.307,114.464 C196.324,113.478 196.336,112.45 196.343,111.371 Z" id="Fill-3" fill="#02BCEF"></path>
                <path d="M208.733,151.768 C207.949,154.299 207.065,156.784 206.077,159.245 C201.48,170.713 195.161,181.66 186.817,190.799 C166.821,213.555 137.978,227.339 109.522,236.226 C108.681,236.489 107.84,236.751 106.999,237.014 C106.159,236.751 105.32,236.489 104.479,236.226 C77.184,227.702 50.454,214.871 30.718,194.4 C27.91,191.487 25.397,188.559 23.128,185.626 C32.467,188.179 42.283,189.52 51.049,190.245 C67.115,203.745 87.047,212.83 106.999,219.277 C129.053,212.152 151.773,201.638 168.649,185.349 C179.219,175.153 188.653,160.425 191.1,149.229 C190.822,147.952 190.511,146.643 190.162,145.298 C185.178,131.8 171.819,117.638 152.591,111.789 C164.211,162.949 120.354,196.637 73.939,193.252 C119.295,190.33 167.204,139.31 128.056,102.008 C124.195,98.33 121.468,94.15 129.549,93.508 C154.075,92.608 181.327,101.953 195.239,121.981 C202.854,133.134 206.079,141.952 208.733,151.768 Z" id="Path" fill="#02BCEF"></path>
                <path d="M125.166,131.799 C124.239,149.122 113.047,164.519 98.302,173.435 C81.673,183.49 62.253,185.68 43.372,183.136 C35.768,182.181 25.734,179.856 16.779,176.457 C12.361,169.312 9.06,162.156 6.14,155.065 C12.42,157.194 18.703,159.322 24.983,161.453 C59.158,173.037 85.241,165.227 98.531,151.939 C104.114,146.359 106.595,139.468 107.059,133.179 C107.8,123.1 105.182,116.712 93.497,119.245 C77.102,122.796 51.264,140.305 49.575,121.376 C49.127,98.78 79.591,50.976 143.251,66.584 C161.633,72.133 176.043,82.446 186.572,95.894 C160.822,78.858 130.408,73.621 108.881,79.922 C97.909,83.134 83.079,94.316 84.53,102.304 C85.251,106.273 89.277,107.68 101.162,110.27 C112.925,112.835 125.964,116.887 125.166,131.799" id="Fill-4" fill="#004478"></path>
            </g>
        </g>
    </g>
</svg>