<?xml version="1.0" encoding="UTF-8"?>
<svg width="1148px" height="1044px" viewBox="0 0 1148 1044" version="1.1" xmlns="http://www.w3.org/2000/svg" xmlns:xlink="http://www.w3.org/1999/xlink">
    <!-- Generator: Sketch 51.3 (57544) - http://www.bohemiancoding.com/sketch -->
    <title>Group</title>
    <desc>Created with Sketch.</desc>
    <defs></defs>
    <g id="Page-1" stroke="none" stroke-width="1" fill="none" fill-rule="evenodd">
        <g id="Group-6" transform="translate(-1468.000000, -2368.000000)">
            <g id="Tile-1" transform="translate(365.000000, 1661.000000)">
                <g id="Group" transform="translate(1103.000000, 707.000000)">
                    <path d="M576.348053,4.73394257 C576.348053,4.73394257 601.020053,2.61394257 618.411053,30.1839426 C635.800053,57.7539426 639.771053,113.033943 622.652053,142.873943 C605.533053,172.723943 559.453053,170.573943 535.702053,153.603943 C511.950053,136.643943 510.151053,119.673943 505.748053,103.983943 C501.346053,88.2939426 482.684053,80.6539426 489.470053,45.4539426 C496.256053,10.2439426 534.286053,-9.68605743 576.348053,4.73394257" id="Fill-181" fill="#80CFD4"></path>
                    <path d="M341.174,773.431299 C321.54,781.191299 287.641,780.591299 266.542,779.861299 C211.285,777.941299 156.028,776.031299 100.772,774.111299 C100.182,765.711299 99.591,757.311299 99,748.911299 C152.335,738.141299 205.67,727.371299 259.005,716.601299 C274.114,713.551299 290.066,710.081299 301.302,699.521299 C315.245,686.421299 320.135,663.981299 337.44,655.831299 C348.949,650.401299 363,653.311299 373.782,660.071299 C382.251,665.371299 400.416,679.501299 399.834,689.811299 C399.289,699.481299 395.825,711.791299 390.799,719.991299 C378.017,740.841299 364.481,764.221299 341.174,773.431299" id="Fill-182" fill="#FFCAA6"></path>
                    <path d="M73.1542944,756.114986 C67.2702944,762.604986 67.6702944,772.444986 68.4202944,781.184986 C70.5402944,805.884986 72.6612944,830.584986 74.7822944,855.274986 C75.0622944,858.534986 75.5342944,862.164986 78.0892944,864.204986 C80.8992944,866.444986 85.2692944,865.664986 87.9802944,863.304986 C90.6912944,860.944986 92.0642944,857.414986 93.0022944,853.944986 C96.2372944,841.984986 95.4352944,829.344986 96.6362944,817.004986 C97.8362944,804.664986 101.668294,791.604986 111.528294,784.094986 C116.922294,779.984986 124.392294,777.014986 125.843294,770.394986 C130.441294,749.404986 83.6112944,744.564986 73.1542944,756.114986" id="Fill-183" fill="#FFCAA6"></path>
                    <path d="M442.939,665.46 L395.859,726.54 C395.859,726.54 347.718,702.57 307,675.85 C337.115,625.8 380.801,552 380.801,552 C380.801,552 442.514,633.65 442.939,665.46" id="Fill-184" fill="#ED8629"></path>
                    <path d="M724.218,996.972884 C722.081,1006.63288 709.919,1011.14288 700.352,1008.61288 C690.785,1006.09288 683.369,998.742884 676.439,991.682884 C659.275,974.182884 642.111,956.692884 624.947,939.202884 C601.472,915.272884 577.717,890.982884 561.285,861.772884 C551.109,843.682884 543.94,824.032884 533.841,805.892884 C508.412,760.242884 464.884,724.912884 448,675.452884 C462.788,667.772884 477.575,660.102884 492.363,652.422884 C501.12,647.872884 522.253,631.432884 532.305,634.342884 C542.782,637.382884 550.853,663.812884 555.59,672.912884 C563.37,687.862884 571.15,702.812884 578.929,717.762884 C610.243,777.942884 641.557,838.122884 672.871,898.292884 C681.428,914.742884 689.986,931.182884 698.545,947.632884 C702.823,955.852884 707.102,964.082884 711.381,972.302884 C713.679,976.722884 725.198,992.442884 724.218,996.972884" id="Fill-185" fill="#FFCAA6"></path>
                    <path d="M706.879029,1027.04 C712.364029,1034.13 718.669029,1041.73 727.499029,1043.27 C736.612029,1044.86 745.395029,1039.44 752.625029,1033.66 C775.405029,1015.47 793.245029,991.17 803.795029,964 C795.485029,968.6 787.185029,973.19 778.875029,977.79 C770.315029,982.53 761.560029,987.34 751.942029,989.14 C732.376029,992.82 710.995029,982.12 702.216029,964.25 C705.285029,970.35 689.491029,990.56 689.026029,997.97 C688.362029,1008.56 700.566029,1018.88 706.879029,1027.04" id="Fill-186" fill="#FFCAA6"></path>
                    <path d="M371,548 C371,548 372.02,566.83 392.823,609.59 C413.626,652.34 461.343,719.78 461.343,719.78 C461.343,719.78 517.33,712.78 567.591,668.88 C538.961,612.89 509.696,571.08 509.696,571.08 L371,548" id="Fill-187" fill="#FA9837"></path>
                    <path d="M455.375005,189.181526 C470.378005,186.421526 485.820005,188.951526 500.745005,192.111526 C526.125005,197.481526 551.121005,204.671526 575.476005,213.611526 C588.339005,218.331526 601.216005,223.641526 611.974005,232.131526 C622.733005,240.611526 631.270005,252.731526 632.713005,266.361526 C634.120005,279.631526 628.809005,292.611526 623.373005,304.801526 C602.040005,352.631526 577.038005,398.821526 548.659005,442.841526 C543.865005,450.271526 538.417005,458.101526 530.101005,461.121526 C520.777005,464.501526 510.516005,460.931526 501.253005,457.381526 C468.974005,445.011526 436.694005,432.641526 404.415005,420.271526 C398.017005,417.821526 391.072005,414.891526 387.958005,408.791526 C385.866005,404.691526 385.915005,399.861526 386.060005,395.261526 C387.107005,362.131526 390.682005,329.091526 396.722005,296.501526 C401.472005,270.871526 404.830005,235.011526 419.445005,212.811526 C427.550005,200.501526 440.976005,191.831526 455.375005,189.181526" id="Fill-188" fill="#FFCAA6"></path>
                    <path d="M649.656962,256.36563 C661.455962,270.85563 669.458962,287.98563 677.340962,304.91563 C694.631962,342.07563 711.922962,379.22563 729.212962,416.38563 C710.423962,424.29563 691.633962,432.19563 672.844962,440.10563 C650.861962,397.79563 611.106962,351.11563 595.522962,306.05563 C588.809962,286.64563 596.572962,261.42563 606.155962,241.38563 C616.501962,219.75563 640.842962,245.54563 649.656962,256.36563" id="Fill-189" fill="#FFCAA6"></path>
                    <path d="M459.577,590.8 L459.568,590.8 C459.568,590.8 643.632,605.99 785.503,593.33 C904.553,582.71 932.363,541.96 938.233,529.11 L944.603,529.76 C944.603,529.76 932.303,585.22 790.423,597.88 C648.55,610.54 464.487,595.34 464.487,595.34 L464.496,595.35 C421.42,587.77 378.635,579.34 335.257,570.76 C153.394,534.83 6.035,472.67 1.491,464.11 C1.306,463.77 1.147,463.39 1,463 C27.204,478.82 164.396,533.42 330.338,566.22 C373.716,574.79 416.501,583.22 459.577,590.8" id="Fill-190" fill="#FA9837"></path>
                    <path d="M4.23161506,435 L938.226615,529.42 C932.356615,542.27 904.546615,583.02 785.496615,593.64 C643.625615,606.3 459.561615,591.11 459.561615,591.11 L459.570615,591.11 C416.494615,583.53 373.709615,575.1 330.331615,566.53 C164.389615,533.73 27.1976151,479.13 0.99361506,463.31 C-2.46938494,454.19 4.23161506,435 4.23161506,435" id="Fill-191" fill="#F15F46"></path>
                    <path d="M914.621,619.16 C802.581,629.88 704.025,627.08 611,617.17 C698.62,625.53 791.531,627.31 896.191,617.29 C1122.611,595.63 1128.741,549 1128.741,549 L1147.171,550.86 C1147.171,550.86 1141.041,597.49 914.621,619.16" id="Fill-192" fill="#FA9837"></path>
                    <path d="M897.026,616.94 C792.366,626.96 699.455,625.18 611.835,616.82 C561.699,611.47 513.169,604.07 465.009,595.59 L465,595.58 C465,595.58 649.063,610.78 790.936,598.12 C932.816,585.46 945.116,530 945.116,530 L1129.576,548.65 C1129.576,548.65 1123.446,595.28 897.026,616.94" id="Fill-193" fill="#EFE6E8"></path>
                    <polyline id="Fill-194" fill="#FA9837" points="841.389 584.71 2.34 450 0 456.06 825.079 587.93 841.389 584.71"></polyline>
                    <path d="M268.562148,508.65 L141.465148,488 C141.465148,488 81.9541485,514.98 90.9201485,520.69 C99.8851485,526.4 268.562148,508.65 268.562148,508.65" id="Fill-195" fill="#FA9837"></path>
                    <path d="M173.092,451.56 L172.766,455.05 C172.766,455.05 60.274,451.78 57.387,448.79 C54.499,445.79 39,438 39,438 L173.092,451.56" id="Fill-196" fill="#FA9837"></path>
                    <path d="M479.636,373.261788 L479.627,373.271788 C479.627,373.271788 663.059,395.231788 799.938,436.071788 C914.798,470.341788 934.558,515.901788 937.938,529.671788 L944.308,530.321788 C944.308,530.321788 942.488,473.431788 805.608,432.591788 C668.727,391.751788 485.294,369.791788 485.294,369.791788 L485.304,369.791788 C441.631,368.601788 398.087,368.301788 353.936,368.031788 C168.828,366.861788 12.73,398.331788 6.689,405.831788 C6.442,406.131788 6.217,406.471788 6,406.821788 C34.639,396.551788 179.365,370.441788 348.268,371.501788 C392.42,371.781788 435.963,372.081788 479.636,373.261788" id="Fill-197" fill="#FA9837"></path>
                    <path d="M3.89429917,434.781343 L937.889299,529.201343 C934.509299,515.431343 914.749299,469.871343 799.889299,435.601343 C663.010299,394.761343 479.578299,372.801343 479.578299,372.801343 L479.587299,372.791343 C435.914299,371.611343 392.371299,371.311343 348.219299,371.031343 C179.316299,369.971343 34.5902992,396.081343 5.95129917,406.351343 C0.867299169,414.611343 3.89429917,434.781343 3.89429917,434.781343" id="Fill-198" fill="#F15F46"></path>
                    <path d="M932.307,436.86 C824.357,403.9 727.119,386.9 634,378 C721.527,387.34 813.027,404.2 913.887,435 C1132.067,501.61 1129.457,548.6 1129.457,548.6 L1147.88841,550.46 C1147.88841,550.46 1150.487,503.47 932.307,436.86" id="Fill-199" fill="#FA9837"></path>
                    <path d="M913.904,434.58 C813.044,403.78 721.544,386.92 634.017,377.58 C583.831,372.78 534.838,370.33 486.01,369 L486,369 C486,369 669.433,390.96 806.314,431.8 C943.194,472.64 945.014,529.53 945.014,529.53 L1129.47543,548.18 C1129.47543,548.18 1132.084,501.19 913.904,434.58" id="Fill-200" fill="#EFE6E8"></path>
                    <polyline id="Fill-201" fill="#FA9837" points="853.447 455.3 5.175 419.42 4 413 838.037 448.87 853.447 455.3"></polyline>
                    <path d="M277.307475,415.601522 L148.767475,410.411522 C148.767475,410.411522 95.3584751,372.011522 105.213475,368.201522 C115.066475,364.401522 277.307475,415.601522 277.307475,415.601522" id="Fill-202" fill="#FA9837"></path>
                    <path d="M173.092,451.659856 L173.418,448.159856 C173.418,448.159856 62.423,428.839856 59.037,431.199856 C55.651,433.559856 39,438.099856 39,438.099856 L173.092,451.659856" id="Fill-203" fill="#FA9837"></path>
                    <path d="M628.44978,80.3890098 C636.20578,126.11901 620.27078,174.28901 591.36778,179.18901 C562.46578,184.08901 531.53878,143.86901 523.78278,98.1390098 C516.02678,52.4090098 534.37878,18.4890098 563.28178,13.5890098 C592.18378,8.68900978 620.69378,34.6590098 628.44978,80.3890098" id="Fill-204" fill="#FFCAA6"></path>
                    <path d="M784.174757,381.471431 C785.904757,380.081431 787.764757,378.741431 789.924757,378.211431 C792.084757,377.681431 794.614757,378.121431 796.044757,379.831431 C798.724757,383.021431 796.224757,388.341431 798.464757,391.861431 C800.164757,394.541431 803.884757,395.031431 807.034757,394.671431 C810.184757,394.311431 813.414757,393.381431 816.464757,394.241431 C819.524757,395.101431 822.044757,398.831431 820.254757,401.451431 C821.804757,399.231431 825.694757,399.931431 827.004757,402.301431 C828.314757,404.671431 827.454757,407.771431 825.674757,409.821431 C823.904757,411.861431 821.394757,413.101431 818.954757,414.281431 C814.174757,416.591431 809.174757,418.961431 803.864757,418.971431 C800.294757,418.991431 796.814757,417.931431 793.404757,416.881431 C786.584757,414.791431 779.774757,412.691431 772.964757,410.601431 C757.018757,405.711431 777.334757,387.001431 784.174757,381.471431" id="Fill-205" fill="#FFCAA6"></path>
                    <path d="M348.008242,539.887047 C350.131242,546.797047 352.274242,554.087047 350.677242,561.137047 C349.029242,568.407047 343.413242,574.417047 336.656242,577.567047 C329.402242,580.957047 321.152242,581.307047 313.151242,581.607047 C306.524242,581.847047 298.725242,581.537047 294.947242,576.087047 C291.173242,570.647047 293.611242,563.237047 296.154242,557.127047 C299.700242,548.597047 303.245242,540.067047 306.791242,531.547047 C309.680242,524.597047 312.718242,517.427047 318.191242,512.257047 C339.486242,492.137047 343.659242,525.747047 348.008242,539.887047" id="Fill-206" fill="#FFCAA6"></path>
                    <path d="M473.127811,188.632366 C473.127811,188.632366 454.768811,182.512366 426.138811,193.972366 C397.508811,205.422366 268.356811,312.302366 260.721811,344.112366 C253.087811,375.922366 308.438811,532.362366 312.255811,529.532366 C316.073811,526.712366 341.870811,516.952366 341.870811,516.952366 C341.870811,516.952366 321.377811,385.622366 322.860811,378.232366 C324.343811,370.832366 428.986811,295.122366 428.986811,295.122366 C428.986811,295.122366 483.215811,246.272366 473.127811,188.632366" id="Fill-207" fill="#FFCAA6"></path>
                    <path d="M506,194.03 C506,194.03 519.094,191.57 525.774,176.94 C532.455,162.3 542.21,138 542.21,138 L588.123,167.39 C588.123,167.39 578.408,195.53 578.58,205.57 C578.752,215.61 589.508,219.94 589.508,219.94 C589.508,219.94 627.791,234.65 637.235,244.32 C581.444,263.46 508.812,212.39 506,194.03" id="Fill-208" fill="#FFCAA6"></path>
                    <path d="M583.85,179.5 C583.85,179.5 570.646,177.06 559.618,167.52 C548.59,157.98 539.762,143 539.762,143 L524,179.5 C524,179.5 535.018,184.54 553.256,186.85 C571.494,189.15 581.74,186.85 581.74,186.85 L583.85,179.5" id="Fill-209" fill="#F2B186"></path>
                    <path d="M393.111,321.15 L439.382,284 C439.382,284 429.838,331.74 426.339,367.6 C414.247,367.89 388,367.39 388,367.39 C388,367.39 390.738,333.33 393.111,321.15" id="Fill-210" fill="#F2B186"></path>
                    <path d="M609,337.19 C610.285,335.63 620.147,314 620.147,314 L654.205,380.64 L633.895,378.34 L609,337.19" id="Fill-211" fill="#F2B186"></path>
                    <path d="M628.973179,79.8152296 C628.973179,79.8152296 624.195179,51.6452296 604.472179,42.7352296 C584.749179,33.8252296 580.296179,55.4552296 566.618179,72.3152296 C552.939179,89.1752296 535.742179,103.55523 520.492179,102.22523 C505.241179,100.89523 502.677179,23.4752296 556.756179,12.4252296 C610.834179,1.3852296 629.297179,57.4052296 628.973179,79.8152296" id="Fill-212" fill="#80CFD4"></path>
                </g>
            </g>
        </g>
    </g>
</svg>