<?xml version="1.0" encoding="UTF-8"?>
<svg width="144px" height="144px" viewBox="0 0 144 144" version="1.1" xmlns="http://www.w3.org/2000/svg" xmlns:xlink="http://www.w3.org/1999/xlink">
    <!-- Generator: Sketch 49 (51002) - http://www.bohemiancoding.com/sketch -->
    <title>search</title>
    <desc>Created with Sketch.</desc>
    <defs>
        <ellipse id="path-1" cx="71.8715801" cy="71.8057249" rx="71.8715801" ry="71.8057249"></ellipse>
    </defs>
    <g id="Extension" stroke="none" stroke-width="1" fill="none" fill-rule="evenodd">
        <g id="Mobile" transform="translate(-655.000000, -25.000000)">
            <g id="search" transform="translate(655.000000, 25.000000)">
                <g id="Shape">
                    <mask id="mask-2" fill="white">
                        <use xlink:href="#path-1"></use>
                    </mask>
                    <use id="Mask" fill="#B7B7B7" fill-rule="nonzero" xlink:href="#path-1"></use>
                    <path d="M80,39 L150,97 L104,150 L35,70 C55.6666667,86 69.6666667,86 77,70 C84.3333333,54 85.3333333,45.6666667 80,45 L80,39 Z" id="Path-12" fill-opacity="0.315953351" fill="#929292" mask="url(#mask-2)"></path>
                    <path d="M118.320324,105.620016 L90.9318958,78.0031274 C89.9920968,77.050821 88.3810128,77.050821 87.4412138,78.0031274 L86.7699288,78.6833464 L84.2190458,76.0985145 C92.1402088,64.8068804 90.7976388,49.297889 81.1311347,39.3666927 C70.1220607,28.2111024 52.2658796,28.2111024 41.2568055,39.3666927 C30.2477315,50.522283 30.2477315,68.6161063 41.2568055,79.7716966 C46.7613426,85.3494918 53.8769636,88.0703675 61.1268416,88.0703675 C66.7656357,88.0703675 72.5386867,86.3017983 77.3719387,82.7646599 L79.9228217,85.3494918 L79.5200507,86.0297107 C78.5802517,86.9820172 78.5802517,88.6145426 79.5200507,89.5668491 L106.774222,117.319781 C107.042736,117.591869 107.579764,118 108.519563,118 C108.788077,118 109.190848,118 109.459362,117.863956 C112.68153,117.047694 117.917553,111.605942 118.857352,108.340891 C119.260123,106.84441 118.723095,106.028147 118.320324,105.620016 Z M46.9975207,74.0314309 C39.0008264,66.0281224 39.0008264,53.0057899 46.9975207,45.0024814 C54.9942149,36.9991729 68.0057851,36.9991729 76.0024793,45.0024814 C83.9991736,53.0057899 83.9991736,66.0281224 76.0024793,74.0314309 C72.0719008,78.1009098 66.7859504,80 61.5,80 C56.2140496,80 50.9280992,77.9652605 46.9975207,74.0314309 Z" fill="#FFFFFF" fill-rule="nonzero" mask="url(#mask-2)"></path>
                </g>
            </g>
        </g>
    </g>
</svg>