<?xml version="1.0" encoding="UTF-8"?>
<svg width="673px" height="1206px" viewBox="0 0 673 1206" version="1.1" xmlns="http://www.w3.org/2000/svg" xmlns:xlink="http://www.w3.org/1999/xlink">
    <!-- Generator: Sketch 51.3 (57544) - http://www.bohemiancoding.com/sketch -->
    <title>Group 4</title>
    <desc>Created with Sketch.</desc>
    <defs></defs>
    <g id="Page-1" stroke="none" stroke-width="1" fill="none" fill-rule="evenodd">
        <g id="Group-6" transform="translate(-11059.000000, -1405.000000)">
            <g id="Tile-3" transform="translate(9762.000000, 803.000000)">
                <g id="Group-4" transform="translate(1297.000000, 602.000000)">
                    <path d="M280.205321,8.90160318 C280.205321,8.90160318 298.835321,2.05060318 318.575321,15.3506032 C338.325321,28.6496032 336.715321,59.2796032 341.955321,71.7736032 C347.195321,84.2676032 358.035321,112.478603 353.215321,140.689603 C348.405321,168.901603 307.965321,178.981603 307.965321,178.981603 L263.765321,216.055603 C263.765321,216.055603 253.285321,189.456603 237.165321,181.798603 C221.045321,174.141603 192.725321,162.426603 186.675321,132.226603 C180.985321,103.789603 191.515321,100.387603 192.725321,89.9096032 C193.935321,79.4306032 188.585321,66.9366032 192.725321,38.7256032 C196.865321,10.5136032 240.205321,-13.6673968 280.205321,8.90160318" id="Fill-30" fill="#51495B"></path>
                    <path d="M247.527465,726 C247.527465,726 213.247465,908.071 208.137465,934.271 C203.037465,960.471 200.537465,1019.801 186.747465,1076.871 C172.947465,1133.951 167.967465,1153.781 167.967465,1153.781 L135.857465,1154.801 C135.857465,1154.801 126.427465,1084.001 131.497465,1034.371 C136.567465,984.731 141.297465,947.151 142.817465,925.611 C144.337465,904.081 134.147465,800.574 143.227465,729.326 C180.067465,728.151 247.527465,726 247.527465,726" id="Fill-31" fill="#FFCAA6"></path>
                    <path d="M168.778715,1153.46871 C168.778715,1153.46871 168.768715,1170.97871 165.998715,1175.88871 C163.238715,1180.79871 157.698715,1180.68871 150.068715,1186.03871 C142.428715,1191.38871 122.618715,1202.50871 108.718715,1205.49871 C94.818715,1208.49871 95.408715,1197.13871 104.928715,1189.74871 C114.448715,1182.34871 134.128715,1165.12871 136.668715,1154.48871 C139.208715,1143.84871 165.108715,1142.87871 168.778715,1153.46871" id="Fill-32" fill="#FFCAA6"></path>
                    <path d="M260,726 C260,726 294.28,908.071 299.38,934.271 C304.49,960.471 306.99,1019.801 320.78,1076.871 C334.57,1133.951 339.56,1153.781 339.56,1153.781 L371.67,1154.801 C371.67,1154.801 381.09,1084.001 376.02,1034.371 C370.95,984.731 366.23,947.151 364.71,925.611 C363.18,904.081 373.37,800.574 364.29,729.326 C327.45,728.151 260,726 260,726" id="Fill-33" fill="#FFCAA6"></path>
                    <path d="M339,1153.46871 C339,1153.46871 339,1170.97871 341.77,1175.88871 C344.54,1180.79871 350.08,1180.68871 357.71,1186.03871 C365.35,1191.38871 385.16,1202.50871 399.06,1205.49871 C412.96,1208.49871 412.36,1197.13871 402.84,1189.74871 C393.32,1182.34871 373.65,1165.12871 371.11,1154.48871 C368.56,1143.84871 342.66,1142.87871 339,1153.46871" id="Fill-34" fill="#FFCAA6"></path>
                    <path d="M357.77,623.047836 L373.49,812.467836 C373.49,812.467836 363.41,817.707836 331.17,822.140836 C298.93,826.573836 272.73,826.170836 272.73,826.170836 C272.73,826.170836 259.53,751.812836 257.11,745.465836 C254.69,739.117836 252.13,735.792836 247.52,753.928836 C242.91,772.064836 235.05,826.179836 235.05,826.179836 C235.05,826.179836 214.49,830.704836 184.27,830.099836 C154.04,829.495836 130,818.916836 130,818.916836 C130,818.916836 142.15,664.961836 153.44,614.180836 C164.72,563.399836 350.92,565.818836 357.77,623.047836" id="Fill-35" fill="#F15F46"></path>
                    <path d="M484.838942,419.453687 C486.868942,426.379687 488.718942,433.526687 488.388942,440.777687 C488.048942,448.029687 485.148942,455.501687 479.468942,459.436687 C468.648942,466.931687 454.498942,458.734687 444.578942,449.922687 C405.318942,415.074687 369.468942,366.204687 356.398942,313.347687 C352.498942,297.585687 352.398942,269.225687 363.408942,255.082687 C375.758942,239.220687 383.048942,249.933687 392.128942,259.777687 C417.368942,287.112687 445.828942,326.395687 462.258942,360.601687 C471.318942,379.482687 478.898942,399.186687 484.838942,419.453687" id="Fill-36" fill="#FFCAA6"></path>
                    <path d="M225.24,241.068 L175.5,261.115 L164.99,344.718 C164.99,344.718 145.64,561.068 140,625.552 C237.53,661.824 368.51,628.373 368.51,628.373 C368.51,628.373 372.95,380.917 374.96,326.912 C376.98,272.907 374.96,246.711 374.96,246.711 C374.96,246.711 359.24,235.426 335.47,232 C292.34,237.844 225.24,241.068 225.24,241.068" id="Fill-37" fill="#FA9837"></path>
                    <path d="M336.466199,78.2208109 C355.526199,126.428811 349.246199,182.788811 318.776199,194.836811 C288.306199,206.885811 245.186199,170.060811 226.126199,121.852811 C207.056199,73.6448109 219.276199,32.3088109 249.746199,20.2598109 C280.216199,8.21081091 317.396199,30.0128109 336.466199,78.2208109" id="Fill-38" fill="#FFCAA6"></path>
                    <path d="M189.127642,326.215109 C182.197642,345.311109 164.087642,367.199109 152.587642,383.947109 C132.967642,412.517109 109.837642,430.595109 88.5776417,457.967109 C75.9476417,474.229109 51.6476417,494.076109 31.3176417,497.299109 C21.4376417,498.866109 10.1976417,496.247109 4.29764173,488.176109 C-0.622358272,481.458109 -0.942358272,472.225109 1.44764173,464.250109 C3.83764173,456.275109 8.60764173,449.257109 13.3076417,442.381109 C30.8776417,416.647109 57.9176417,388.226109 75.4976417,362.492109 C89.9776417,341.287109 104.527642,320.000109 121.887642,301.086109 C130.297642,291.933109 139.367642,283.358109 149.227642,275.783109 C156.687642,270.055109 169.047642,258.675109 179.177642,259.007109 C199.177642,259.663109 193.037642,315.452109 189.127642,326.215109" id="Fill-39" fill="#FFCAA6"></path>
                    <path d="M266.97,278.629974 C275.91,283.891974 286,288.261974 296.34,287.275974 C308.77,286.088974 319.5,277.054974 325.33,266.008974 C331.16,254.962974 335.21,243.867974 335.23,231.376974 C327.75,228.237974 304.07,223.623974 301.03,223.394974 C289.83,222.546974 278.53,223.067974 267.45,224.923974 C256.37,226.778974 245.52,229.974974 235.23,234.468974 C230.83,236.390974 228.22,238.228974 225,240.444974 C225.73,244.122974 234.04,251.907974 236.55,254.528974 C245.53,263.902974 255.77,272.048974 266.97,278.629974" id="Fill-40" fill="#FFCAA6"></path>
                    <path d="M246.777014,230.283 C254.677014,227.985 254.907014,205.997 253.767014,197.594 C251.387014,180.057 250.707014,167.536 248.327014,150 C267.637014,155.586 291.237014,155.737 310.537014,161.323 C306.527014,182.167 309.447014,204.286 318.747014,223.372 C320.087014,226.129 321.577014,228.899 321.957014,231.941 C322.567014,236.79 320.167014,241.66 316.627014,245.02 C313.077014,248.381 308.497014,250.436 303.887014,252.048 C288.747014,257.335 268.187014,260.083 252.757014,254.051 C232.887014,246.281 235.367014,233.601 246.777014,230.283" id="Fill-41" fill="#FFCAA6"></path>
                    <path d="M486.936898,445.748793 C470.076898,426.170793 452.986898,397.231793 454.046898,371.413793 C454.466898,361.200793 457.896898,351.383793 461.296898,341.742793 C468.446898,321.468793 475.586898,301.194793 482.726898,280.919793 C485.116898,274.148793 496.936898,228.144793 506.436898,239.917793 C510.696898,245.197793 513.096898,243.070793 512.936898,249.226793 C512.666898,260.043793 509.286898,282.749793 507.696898,297.790793 C505.396898,319.638793 502.746898,343.571793 499.976898,365.364793 C496.836898,390.085793 491.976898,421.341793 486.936898,445.748793" id="Fill-42" fill="#FFCAA6"></path>
                    <path d="M249,162 C249,162 272.25,197.876 309.53,197.483 C310.48,202.162 311.46,206.075 311.46,206.075 C311.46,206.075 300.47,212.002 277.9,209.382 C255.33,206.762 252.96,197.631 252.96,197.631 L249,162" id="Fill-43" fill="#F2B186"></path>
                    <path d="M192.794905,688.847702 C192.794905,688.847702 234.194905,720.282702 257.524905,720.484702 C280.854905,720.685702 329.824905,689.249702 331.434905,695.093702 C333.044905,700.937702 295.364905,724.312702 281.664905,736.806702 C267.954905,749.300702 262.564905,769.643702 262.564905,769.643702 C262.564905,769.643702 258.484905,739.828702 253.854905,742.449702 C249.214905,745.068702 245.954905,762.189702 245.954905,762.189702 C245.954905,762.189702 224.024905,734.186702 205.084905,718.871702 C186.144905,703.556702 170.624905,694.690702 170.024905,688.847702 C169.414905,683.002702 180.094905,681.793702 192.794905,688.847702" id="Fill-44" fill="#CC524C"></path>
                    <path d="M191.88,315 L176.78,531.079 L209.72,535.009 C209.72,535.009 187.05,549.215 180.4,554.656 C173.75,560.097 168.33,633.77 168.33,633.77 C168.33,633.77 150.68,630.021 140,625.286 C142.14,600.994 162.66,370.539 162.66,370.539 L191.88,315" id="Fill-45" fill="#ED8629"></path>
                    <path d="M174.324071,522.895103 C172.624071,528.977103 170.934071,535.059103 169.234071,541.141103 C126.564071,535.825103 75.0240708,528.416103 34.5840708,513.790103 C26.4640708,510.855103 18.2040708,507.611103 11.8440708,501.779103 C5.48407083,495.946103 1.35407083,486.908103 3.63407083,478.584103 C5.73407083,470.907103 12.6940708,465.486103 19.9840708,462.288103 C32.0540708,456.993103 56.0840708,453.575103 68.5140708,458.110103 C79.9140708,462.265103 89.5640708,472.806103 99.4240708,479.799103 C122.964071,496.478103 148.074071,510.934103 174.324071,522.895103" id="Fill-46" fill="#FFCAA6"></path>
                    <path d="M171.308518,521.502259 C171.308518,521.502259 199.468518,510.703259 208.988518,511.006259 C218.508518,511.308259 241.178518,515.691259 242.538518,519.016259 C243.898518,522.341259 238.008518,524.305259 238.008518,524.305259 C238.008518,524.305259 238.608518,526.421259 235.888518,528.386259 C233.168518,530.351259 229.838518,530.955259 229.838518,530.955259 C229.838518,530.955259 228.478518,534.129259 225.608518,535.187259 C222.738518,536.245259 223.188518,535.943259 217.748518,537.907259 C212.308518,539.872259 201.728518,538.361259 199.318518,538.663259 C196.898518,538.966259 185.078518,545.153259 169.598518,541.303259 C154.128518,537.454259 159.328518,521.117259 171.308518,521.502259" id="Fill-47" fill="#FFCAA6"></path>
                    <polyline id="Fill-48" fill="#F2B186" points="458.12 352.299 441 395.564 453.65 344 458.12 352.299"></polyline>
                    <path d="M82.1,465.799622 C82.1,465.799622 66.55,456.236622 46,454.020622 C64.33,453.616622 87.79,459.282622 87.79,459.282622 L82.1,465.799622" id="Fill-49" fill="#F2B186"></path>
                    <path d="M249.921553,162.092065 C249.921553,162.092065 254.941553,137.131065 248.591553,113.857065 C242.251553,90.5820649 235.291553,82.1190649 235.291553,73.0510649 C235.291553,63.9830649 242.471553,49.1720649 280.141553,63.3780649 C317.811553,77.5850649 329.901553,57.4880649 329.901553,57.4880649 C329.901553,57.4880649 312.071553,4.13406493 251.921553,15.6200649 C191.771553,27.1060649 195.621553,137.480065 249.921553,162.092065" id="Fill-50" fill="#51495B"></path>
                    <path d="M329.260971,150.174311 C329.260971,150.174311 332.470971,171.330311 324.560971,178.546311 C316.640971,185.762311 308.440971,177.087311 305.480971,164.747311 C302.510971,152.406311 303.520971,142.511311 313.020971,138.142311 C322.530971,133.772311 328.650971,142.838311 329.260971,150.174311" id="Fill-51" fill="#CC524C"></path>
                    <polyline id="Fill-52" fill="#F15F46" points="467.31 185.128 526.58 184.297 522.18 148 465 154.99 467.31 185.128"></polyline>
                    <polyline id="Fill-53" fill="#F15F46" points="523 148.493 638.71 51 655.36 259.516 527.4 184.79 523 148.493"></polyline>
                    <polyline id="Fill-54" fill="#CC524C" points="522.85 148 527.25 184.297 518.34 185.748 515 148.959 522.85 148"></polyline>
                    <path d="M638.300262,51.0016431 C638.300262,51.0016431 662.430262,49.4526431 669.840262,141.474643 C677.250262,233.496643 664.620262,259.183643 654.950262,259.517643 C645.270262,259.852643 629.580262,233.149643 623.990262,152.619643 C618.400262,72.0886431 638.300262,51.0016431 638.300262,51.0016431" id="Fill-55" fill="#CC524C"></path>
                    <path d="M623.1625,129 C623.1625,129 655.8725,129.059 659.7725,150.378 C663.6825,171.697 626.4025,177.565 626.4025,177.565 C626.4025,177.565 625.1125,160.232 623.8125,147.13 C622.5125,134.028 623.1625,129 623.1625,129" id="Fill-56" fill="#EFE6E8"></path>
                    <path d="M526.845009,184.711111 C526.845009,184.711111 502.835009,234.855111 497.705009,234.920111 C492.565009,234.984111 488.915009,229.781111 488.025009,226.759111 C487.125009,223.736111 510.815009,184.711111 510.815009,184.711111 C510.815009,184.711111 524.105009,183.111111 526.845009,184.711111" id="Fill-57" fill="#CC524C"></path>
                    <path d="M507.42,306.280299 C507.42,306.280299 514.38,246.431299 514.6,242.603299 C514.83,238.773299 521.8,219.630299 522.45,213.182299 C523.1,206.733299 525.83,204.718299 522.45,199.882299 C519.07,195.046299 520.11,192.240299 513.23,192.225299 C506.34,192.209299 495.09,189.001299 494.48,193.031299 C493.88,197.061299 494.68,201.091299 494.08,204.114299 C493.47,207.136299 492.43,206.900299 493.07,210.562299 C493.71,214.224299 495.22,216.205299 496.06,221.847299 C496.9,227.489299 497.64,238.371299 496.06,239.378299 C494.48,240.386299 488,267.187299 488,267.187299 L507.42,306.280299" id="Fill-58" fill="#FFCAA6"></path>
                </g>
            </g>
        </g>
    </g>
</svg>